<svg xmlns="http://www.w3.org/2000/svg" xmlns:xlink="http://www.w3.org/1999/xlink" width="2000" zoomAndPan="magnify" viewBox="0 0 1500 1499.999933" height="2000" preserveAspectRatio="xMidYMid meet" version="1.0"><defs><clipPath id="b6a24569c6"><path d="M 335 580 L 953 580 L 953 1035 L 335 1035 Z M 335 580 " clip-rule="nonzero"/></clipPath><clipPath id="0375c43e7b"><path d="M 1110.984375 1062.71875 L 251.683594 1345.066406 L 58.53125 757.234375 L 917.832031 474.886719 Z M 1110.984375 1062.71875 " clip-rule="nonzero"/></clipPath><clipPath id="ebe144b50c"><path d="M 1110.984375 1062.71875 L 251.683594 1345.066406 L 58.53125 757.234375 L 917.832031 474.886719 Z M 1110.984375 1062.71875 " clip-rule="nonzero"/></clipPath><clipPath id="43b5327e7d"><path d="M 511 661 L 946 661 L 946 828 L 511 828 Z M 511 661 " clip-rule="nonzero"/></clipPath><clipPath id="d7d9800d62"><path d="M 1110.984375 1062.71875 L 251.683594 1345.066406 L 58.53125 757.234375 L 917.832031 474.886719 Z M 1110.984375 1062.71875 " clip-rule="nonzero"/></clipPath><clipPath id="12483c9cc1"><path d="M 1110.984375 1062.71875 L 251.683594 1345.066406 L 58.53125 757.234375 L 917.832031 474.886719 Z M 1110.984375 1062.71875 " clip-rule="nonzero"/></clipPath><clipPath id="220a836f4a"><path d="M 156 638 L 422 638 L 422 1166 L 156 1166 Z M 156 638 " clip-rule="nonzero"/></clipPath><clipPath id="6325e61df8"><path d="M 1110.984375 1062.71875 L 251.683594 1345.066406 L 58.53125 757.234375 L 917.832031 474.886719 Z M 1110.984375 1062.71875 " clip-rule="nonzero"/></clipPath><clipPath id="1609f76bdc"><path d="M 1110.984375 1062.71875 L 251.683594 1345.066406 L 58.53125 757.234375 L 917.832031 474.886719 Z M 1110.984375 1062.71875 " clip-rule="nonzero"/></clipPath><clipPath id="4b0ecf5ca1"><path d="M 259 884 L 560 884 L 560 1248 L 259 1248 Z M 259 884 " clip-rule="nonzero"/></clipPath><clipPath id="9e8ba1b326"><path d="M 1110.984375 1062.71875 L 251.683594 1345.066406 L 58.53125 757.234375 L 917.832031 474.886719 Z M 1110.984375 1062.71875 " clip-rule="nonzero"/></clipPath><clipPath id="1d5a005094"><path d="M 1110.984375 1062.71875 L 251.683594 1345.066406 L 58.53125 757.234375 L 917.832031 474.886719 Z M 1110.984375 1062.71875 " clip-rule="nonzero"/></clipPath><clipPath id="d0ef2d9343"><path d="M 928.179688 154.882812 L 1402 154.882812 L 1402 574.882812 L 928.179688 574.882812 Z M 928.179688 154.882812 " clip-rule="nonzero"/></clipPath></defs><g clip-path="url(#b6a24569c6)"><g clip-path="url(#0375c43e7b)"><g clip-path="url(#ebe144b50c)"><path fill="#1d4ed8" d="M 439.84375 710.640625 L 437.859375 711.945312 L 433.902344 714.585938 L 430.03125 717.335938 C 429.386719 717.800781 428.738281 718.25 428.101562 718.722656 L 426.210938 720.160156 C 424.953125 721.121094 423.683594 722.070312 422.429688 723.03125 L 418.742188 726.019531 C 418.132812 726.519531 417.503906 727.003906 416.910156 727.523438 L 415.113281 729.074219 C 413.921875 730.117188 412.710938 731.136719 411.542969 732.203125 C 409.21875 734.351562 406.855469 736.453125 404.625 738.6875 C 400.0625 743.070312 395.765625 747.707031 391.578125 752.425781 L 388.511719 756.039062 L 387.746094 756.941406 L 387.003906 757.863281 L 385.519531 759.710938 L 384.039062 761.558594 L 383.300781 762.484375 L 382.585938 763.425781 L 379.738281 767.207031 C 376.015625 772.296875 372.410156 777.484375 369.121094 782.871094 C 362.453125 793.617188 356.695312 804.828125 351.84375 816.507812 C 351.242188 817.96875 350.679688 819.441406 350.097656 820.90625 L 349.230469 823.109375 C 348.953125 823.851562 348.691406 824.589844 348.421875 825.328125 L 346.824219 829.789062 L 345.367188 834.285156 L 344.636719 836.539062 L 343.972656 838.8125 L 342.65625 843.363281 L 341.484375 847.957031 L 340.902344 850.253906 L 340.386719 852.570312 C 340.046875 854.109375 339.695312 855.648438 339.371094 857.199219 L 338.488281 861.855469 C 338.351562 862.636719 338.1875 863.410156 338.0625 864.191406 L 337.695312 866.53125 C 337.460938 868.09375 337.195312 869.65625 336.984375 871.222656 L 336.410156 875.933594 C 336.324219 876.71875 336.207031 877.5 336.148438 878.300781 L 335.949219 880.664062 L 335.742188 883.011719 C 335.675781 883.800781 335.609375 884.585938 335.566406 885.378906 L 335.304688 890.125 L 335.242188 891.3125 L 335.214844 892.503906 L 335.164062 894.878906 C 335.132812 896.46875 335.070312 898.050781 335.097656 899.644531 L 335.160156 904.410156 C 335.207031 906 335.308594 907.59375 335.382812 909.179688 L 335.511719 911.5625 C 335.570312 912.355469 335.644531 913.148438 335.710938 913.945312 L 336.132812 918.707031 L 336.71875 923.46875 C 336.828125 924.261719 336.898438 925.054688 337.039062 925.84375 L 337.429688 928.214844 C 339.453125 941.023438 343.054688 953.371094 348.226562 965.261719 C 349.613281 968.203125 350.925781 971.171875 352.523438 974.019531 L 353.671875 976.171875 L 354.25 977.246094 L 354.882812 978.292969 L 357.40625 982.480469 C 359.15625 985.257812 361.027344 987.988281 363.027344 990.585938 C 364.003906 991.910156 365.0625 993.175781 366.082031 994.449219 L 367.675781 996.320312 L 368.480469 997.25 L 369.304688 998.160156 C 371.484375 1000.609375 373.800781 1002.921875 376.167969 1005.175781 C 378.539062 1007.425781 381.042969 1009.535156 383.59375 1011.578125 C 388.738281 1015.644531 394.195312 1019.238281 399.960938 1022.363281 C 401.386719 1023.167969 402.871094 1023.871094 404.335938 1024.609375 L 406.566406 1025.640625 L 407.683594 1026.152344 L 408.820312 1026.632812 C 411.824219 1027.925781 414.929688 1029.050781 418.0625 1030.054688 C 421.207031 1031.050781 424.394531 1031.882812 427.625 1032.558594 C 430.863281 1033.203125 434.136719 1033.707031 437.425781 1034.027344 C 438.25 1034.113281 439.078125 1034.15625 439.902344 1034.222656 L 441.140625 1034.308594 C 441.550781 1034.332031 441.96875 1034.339844 442.378906 1034.355469 L 444.863281 1034.433594 L 447.347656 1034.414062 C 448.171875 1034.421875 449 1034.375 449.828125 1034.332031 C 450.65625 1034.292969 451.476562 1034.269531 452.316406 1034.1875 L 454.820312 1033.953125 C 455.242188 1033.917969 455.65625 1033.863281 456.074219 1033.800781 L 457.320312 1033.625 C 458.980469 1033.40625 460.617188 1033.074219 462.253906 1032.773438 C 463.066406 1032.601562 463.875 1032.402344 464.675781 1032.214844 L 465.886719 1031.929688 L 467.082031 1031.597656 C 470.273438 1030.726562 473.398438 1029.660156 476.457031 1028.402344 L 478.726562 1027.429688 C 479.480469 1027.113281 480.210938 1026.738281 480.953125 1026.390625 C 482.449219 1025.710938 483.875 1024.90625 485.324219 1024.152344 C 486.035156 1023.75 486.738281 1023.332031 487.445312 1022.921875 L 488.503906 1022.304688 L 489.535156 1021.640625 C 490.222656 1021.199219 490.910156 1020.765625 491.589844 1020.3125 L 493.589844 1018.910156 C 496.246094 1017.019531 498.777344 1014.972656 501.1875 1012.777344 C 502.414062 1011.722656 503.546875 1010.539062 504.710938 1009.410156 C 505.273438 1008.824219 505.824219 1008.226562 506.378906 1007.632812 C 506.65625 1007.335938 506.933594 1007.042969 507.207031 1006.738281 L 508.003906 1005.828125 C 512.300781 1000.890625 515.898438 995.488281 518.789062 989.617188 C 520.207031 986.675781 521.425781 983.65625 522.441406 980.554688 C 522.683594 979.777344 522.902344 978.988281 523.132812 978.210938 C 523.242188 977.820312 523.363281 977.429688 523.46875 977.035156 L 523.746094 975.84375 C 523.921875 975.046875 524.128906 974.261719 524.265625 973.460938 L 524.6875 971.042969 L 524.792969 970.441406 L 524.867188 969.835938 L 525.015625 968.621094 C 525.105469 967.8125 525.226562 967.011719 525.261719 966.199219 L 525.417969 963.765625 C 525.445312 962.949219 525.4375 962.128906 525.441406 961.304688 L 525.445312 960.074219 L 525.371094 958.847656 C 525.316406 958.03125 525.28125 957.214844 525.214844 956.398438 C 525.011719 954.78125 524.855469 953.160156 524.515625 951.574219 L 524.289062 950.378906 L 524.175781 949.785156 L 524.027344 949.183594 L 523.4375 946.835938 C 523.242188 946.054688 522.976562 945.296875 522.742188 944.527344 L 522.367188 943.382812 C 522.242188 943.003906 522.089844 942.632812 521.949219 942.257812 L 521.105469 940.015625 L 520.140625 937.828125 C 519.972656 937.46875 519.828125 937.097656 519.648438 936.746094 L 519.109375 935.679688 L 518.574219 934.621094 C 518.390625 934.265625 518.21875 933.914062 518.015625 933.574219 L 516.832031 931.519531 L 516.535156 931.003906 L 516.214844 930.507812 L 515.5625 929.515625 C 514.734375 928.175781 513.777344 926.921875 512.863281 925.648438 C 512.390625 925.027344 511.890625 924.421875 511.402344 923.808594 L 510.667969 922.894531 L 509.890625 922.011719 C 509.375 921.429688 508.855469 920.84375 508.339844 920.269531 L 506.699219 918.601562 C 504.488281 916.410156 502.128906 914.386719 499.621094 912.539062 L 498.695312 911.84375 C 498.386719 911.621094 498.050781 911.40625 497.730469 911.183594 L 495.800781 909.894531 L 493.8125 908.707031 C 493.476562 908.515625 493.15625 908.300781 492.808594 908.128906 L 491.785156 907.59375 L 490.757812 907.058594 C 490.417969 906.878906 490.078125 906.703125 489.722656 906.550781 L 487.621094 905.609375 C 486.917969 905.292969 486.1875 905.042969 485.476562 904.757812 L 484.40625 904.34375 C 484.035156 904.214844 483.675781 904.105469 483.308594 903.984375 C 480.402344 903.003906 477.433594 902.304688 474.394531 901.882812 L 472.132812 901.609375 C 471.375 901.550781 470.613281 901.523438 469.859375 901.480469 C 469.480469 901.464844 469.105469 901.429688 468.722656 901.429688 L 467.585938 901.445312 L 466.457031 901.460938 C 466.078125 901.457031 465.703125 901.472656 465.328125 901.507812 L 463.074219 901.703125 C 462.699219 901.730469 462.328125 901.78125 461.960938 901.851562 L 460.847656 902.027344 L 459.742188 902.203125 C 459.371094 902.261719 459.007812 902.367188 458.644531 902.445312 L 456.472656 902.960938 L 458.679688 902.746094 C 459.050781 902.714844 459.417969 902.65625 459.789062 902.644531 L 460.894531 902.605469 L 462 902.570312 C 462.371094 902.558594 462.738281 902.539062 463.109375 902.566406 L 465.332031 902.707031 C 465.699219 902.710938 466.066406 902.753906 466.429688 902.796875 L 467.527344 902.910156 L 468.617188 903.027344 C 468.976562 903.066406 469.335938 903.148438 469.699219 903.203125 C 470.417969 903.335938 471.136719 903.449219 471.851562 903.589844 L 473.976562 904.105469 C 474.675781 904.257812 475.375 904.507812 476.070312 904.722656 C 476.765625 904.933594 477.457031 905.125 478.132812 905.402344 L 480.160156 906.167969 C 480.824219 906.449219 481.480469 906.757812 482.140625 907.046875 C 482.46875 907.195312 482.800781 907.335938 483.125 907.496094 L 484.082031 907.996094 C 484.714844 908.335938 485.367188 908.640625 485.984375 909 L 487.835938 910.097656 C 488.148438 910.277344 488.449219 910.472656 488.742188 910.675781 L 489.636719 911.277344 C 490.84375 912.046875 491.964844 912.949219 493.117188 913.789062 L 494.769531 915.160156 C 495.039062 915.394531 495.320312 915.605469 495.585938 915.847656 L 496.367188 916.566406 C 498.476562 918.484375 500.429688 920.539062 502.234375 922.742188 L 503.566406 924.402344 C 503.992188 924.960938 504.394531 925.546875 504.8125 926.113281 L 505.421875 926.972656 L 506 927.859375 C 506.382812 928.453125 506.773438 929.03125 507.148438 929.628906 C 507.847656 930.851562 508.589844 932.039062 509.210938 933.300781 L 509.691406 934.230469 L 509.933594 934.695312 L 510.148438 935.167969 L 511.019531 937.070312 C 511.171875 937.386719 511.292969 937.710938 511.421875 938.035156 L 512.1875 939.972656 C 512.316406 940.289062 512.402344 940.628906 512.511719 940.957031 L 513.160156 942.925781 L 513.703125 944.917969 C 513.792969 945.25 513.894531 945.578125 513.972656 945.910156 L 514.1875 946.917969 C 514.320312 947.589844 514.496094 948.25 514.605469 948.925781 L 514.921875 950.941406 L 515.003906 951.445312 L 515.050781 951.953125 L 515.148438 952.960938 C 515.320312 954.308594 515.316406 955.660156 515.378906 957 C 515.378906 957.671875 515.347656 958.34375 515.335938 959.011719 L 515.304688 960 L 515.214844 961.003906 C 515.152344 961.675781 515.117188 962.339844 515.03125 962.996094 L 514.730469 964.996094 C 514.652344 965.671875 514.488281 966.324219 514.355469 966.988281 L 514.152344 967.976562 L 514.050781 968.46875 L 513.921875 968.953125 L 513.40625 970.90625 C 513.226562 971.554688 512.996094 972.191406 512.800781 972.832031 L 512.492188 973.789062 C 512.378906 974.105469 512.253906 974.421875 512.148438 974.730469 C 511.90625 975.359375 511.679688 975.992188 511.421875 976.597656 C 510.378906 979.078125 509.179688 981.484375 507.824219 983.8125 C 507.488281 984.390625 507.109375 984.949219 506.757812 985.523438 L 506.222656 986.378906 L 505.652344 987.21875 C 505.261719 987.769531 504.890625 988.332031 504.496094 988.875 L 503.269531 990.480469 C 501.609375 992.609375 499.816406 994.617188 497.898438 996.515625 L 497.183594 997.230469 C 496.9375 997.464844 496.683594 997.691406 496.433594 997.921875 L 494.949219 999.292969 C 493.910156 1000.15625 492.921875 1001.058594 491.832031 1001.871094 C 489.714844 1003.539062 487.507812 1005.078125 485.203125 1006.480469 L 483.476562 1007.519531 C 482.894531 1007.855469 482.300781 1008.164062 481.710938 1008.488281 L 480.832031 1008.972656 L 479.929688 1009.421875 C 479.328125 1009.714844 478.734375 1010.023438 478.128906 1010.3125 C 476.90625 1010.84375 475.703125 1011.433594 474.449219 1011.894531 C 473.828125 1012.132812 473.21875 1012.40625 472.585938 1012.617188 L 470.707031 1013.277344 C 470.082031 1013.511719 469.4375 1013.671875 468.804688 1013.875 C 468.175781 1014.074219 467.546875 1014.289062 466.898438 1014.421875 L 464.980469 1014.921875 C 464.339844 1015.070312 463.691406 1015.199219 463.050781 1015.34375 L 462.085938 1015.550781 L 461.113281 1015.714844 C 460.464844 1015.820312 459.824219 1015.9375 459.171875 1016.027344 C 457.875 1016.171875 456.582031 1016.375 455.28125 1016.445312 L 454.308594 1016.523438 C 453.992188 1016.546875 453.675781 1016.570312 453.351562 1016.574219 L 451.414062 1016.628906 C 450.769531 1016.660156 450.105469 1016.621094 449.457031 1016.621094 C 448.804688 1016.625 448.148438 1016.613281 447.484375 1016.566406 L 445.496094 1016.472656 L 443.527344 1016.296875 C 443.195312 1016.265625 442.859375 1016.246094 442.542969 1016.203125 L 441.566406 1016.074219 C 440.910156 1015.984375 440.257812 1015.914062 439.605469 1015.804688 C 429.175781 1014.195312 419.085938 1010.289062 409.972656 1004.738281 C 405.390625 1001.957031 401.078125 998.800781 397.042969 995.277344 C 396.050781 994.375 395.03125 993.503906 394.078125 992.566406 C 393.597656 992.101562 393.101562 991.65625 392.644531 991.171875 L 391.230469 989.75 C 389.378906 987.820312 387.566406 985.855469 385.882812 983.78125 L 385.246094 983.015625 L 384.632812 982.238281 L 383.398438 980.660156 C 382.617188 979.582031 381.804688 978.53125 381.066406 977.425781 C 379.535156 975.242188 378.132812 973.003906 376.804688 970.695312 L 374.863281 967.167969 L 374.375 966.289062 L 373.9375 965.382812 L 373.0625 963.566406 C 371.828125 961.175781 370.855469 958.652344 369.785156 956.167969 C 369.289062 954.917969 368.855469 953.632812 368.378906 952.371094 L 367.679688 950.472656 L 367.070312 948.53125 C 366.671875 947.234375 366.242188 945.953125 365.863281 944.648438 L 364.824219 940.710938 C 364.449219 939.40625 364.191406 938.0625 363.898438 936.734375 L 363.464844 934.734375 L 363.242188 933.738281 L 363.066406 932.726562 L 362.367188 928.691406 C 362.234375 928.019531 362.15625 927.339844 362.066406 926.660156 L 361.792969 924.621094 C 358.984375 902.863281 360.769531 880.257812 366.144531 858.675781 L 366.636719 856.648438 L 367.195312 854.636719 L 368.308594 850.609375 L 369.546875 846.621094 L 370.164062 844.625 L 370.84375 842.648438 L 372.199219 838.699219 L 373.679688 834.789062 C 373.925781 834.140625 374.160156 833.480469 374.421875 832.835938 L 375.21875 830.902344 C 375.753906 829.617188 376.273438 828.324219 376.820312 827.042969 C 381.257812 816.785156 386.472656 806.9375 392.464844 797.503906 C 395.421875 792.777344 398.636719 788.210938 401.949219 783.734375 L 404.492188 780.414062 L 405.128906 779.582031 L 405.789062 778.769531 L 407.140625 777.160156 L 408.457031 775.539062 C 408.675781 775.269531 408.894531 774.996094 409.117188 774.726562 L 409.800781 773.9375 L 412.53125 770.761719 C 416.234375 766.609375 420.023438 762.511719 424.050781 758.671875 C 426.011719 756.707031 428.113281 754.867188 430.148438 752.976562 C 431.183594 752.046875 432.253906 751.15625 433.300781 750.246094 L 434.882812 748.882812 C 435.40625 748.429688 435.953125 748.003906 436.488281 747.558594 L 439.722656 744.929688 C 440.8125 744.074219 441.921875 743.230469 443.027344 742.394531 L 444.683594 741.132812 C 445.234375 740.714844 445.808594 740.320312 446.375 739.921875 L 449.761719 737.507812 L 453.214844 735.191406 L 454.945312 734.035156 L 456.707031 732.933594 L 460.222656 730.738281 L 463.8125 728.652344 L 465.605469 727.605469 L 467.433594 726.621094 L 471.085938 724.652344 L 474.816406 722.773438 C 476.058594 722.144531 477.332031 721.574219 478.589844 720.96875 C 483.640625 718.609375 488.789062 716.429688 494.035156 714.429688 C 515.023438 706.457031 537.34375 701.453125 560.125 698.316406 C 565.824219 697.542969 571.558594 696.878906 577.316406 696.320312 C 583.070312 695.734375 588.859375 695.292969 594.660156 694.90625 C 606.265625 694.148438 617.953125 693.703125 629.699219 693.457031 C 635.566406 693.34375 641.472656 693.273438 647.367188 693.191406 L 665.132812 693.085938 C 677.003906 693.019531 688.925781 692.984375 700.894531 692.785156 C 712.863281 692.585938 724.882812 692.203125 736.921875 691.550781 C 748.964844 690.902344 761.027344 689.878906 773.0625 688.371094 C 785.09375 686.863281 797.117188 684.914062 808.992188 682.191406 C 814.933594 680.890625 820.882812 679.378906 826.722656 677.648438 C 832.566406 675.917969 838.390625 674.042969 844.113281 671.9375 C 849.835938 669.828125 855.488281 667.519531 861.042969 665.015625 C 866.601562 662.515625 872.046875 659.773438 877.394531 656.867188 C 878.71875 656.105469 880.066406 655.410156 881.378906 654.636719 L 885.316406 652.332031 C 887.910156 650.734375 890.5 649.144531 893.023438 647.449219 L 894.929688 646.195312 L 896.800781 644.890625 L 898.671875 643.589844 L 899.601562 642.933594 L 900.519531 642.253906 L 904.1875 639.535156 L 907.769531 636.730469 C 912.488281 632.898438 917.050781 628.902344 921.363281 624.660156 L 924.558594 621.4375 C 925.601562 620.34375 926.621094 619.226562 927.660156 618.136719 L 928.429688 617.308594 L 929.175781 616.457031 L 930.664062 614.75 L 932.148438 613.039062 L 933.566406 611.269531 C 941.203125 601.945312 947.574219 591.824219 952.679688 580.90625 C 946.304688 590.925781 938.894531 600.105469 930.449219 608.453125 C 926.292969 612.589844 921.925781 616.488281 917.355469 620.160156 C 912.78125 623.800781 908.0625 627.25 903.199219 630.460938 L 899.527344 632.832031 L 895.796875 635.105469 L 894.867188 635.671875 L 893.917969 636.21875 L 892.027344 637.300781 L 890.132812 638.386719 L 888.210938 639.421875 C 885.667969 640.832031 883.0625 642.125 880.472656 643.433594 L 876.527344 645.320312 C 875.222656 645.949219 873.882812 646.515625 872.558594 647.121094 C 867.246094 649.464844 861.871094 651.664062 856.410156 653.617188 C 850.945312 655.574219 845.429688 657.367188 839.863281 658.964844 C 834.296875 660.566406 828.675781 661.96875 823.007812 663.203125 C 817.34375 664.433594 811.6875 665.527344 805.945312 666.371094 L 801.636719 667.015625 L 799.484375 667.335938 C 798.769531 667.449219 798.054688 667.554688 797.332031 667.632812 L 788.675781 668.675781 L 787.597656 668.804688 L 786.511719 668.90625 L 784.339844 669.105469 L 779.992188 669.503906 C 777.105469 669.800781 774.191406 669.96875 771.289062 670.171875 L 766.929688 670.46875 C 765.476562 670.5625 764.015625 670.609375 762.558594 670.679688 L 758.191406 670.878906 C 756.734375 670.945312 755.277344 671.019531 753.816406 671.046875 L 745.050781 671.285156 L 736.28125 671.367188 C 724.570312 671.433594 712.796875 671.222656 701 670.921875 C 677.386719 670.257812 653.625 669.179688 629.570312 668.882812 C 617.535156 668.777344 605.441406 668.835938 593.316406 669.339844 C 587.25 669.589844 581.171875 669.90625 575.078125 670.363281 C 568.988281 670.820312 562.902344 671.402344 556.808594 672.097656 C 544.539062 673.492188 532.375 675.519531 520.3125 678.183594 C 508.105469 680.875 496.128906 684.363281 484.382812 688.652344 C 478.488281 690.816406 472.675781 693.242188 466.941406 695.863281 C 465.511719 696.535156 464.070312 697.175781 462.65625 697.878906 L 458.40625 699.980469 L 454.195312 702.210938 L 452.09375 703.332031 L 450.027344 704.507812 L 445.902344 706.882812 L 441.855469 709.386719 Z M 439.84375 710.640625 " fill-opacity="1" fill-rule="nonzero"/></g></g></g><g clip-path="url(#43b5327e7d)"><g clip-path="url(#d7d9800d62)"><g clip-path="url(#12483c9cc1)"><path fill="#1d4ed8" d="M 942.070312 666.097656 L 940.746094 667.507812 L 938.105469 670.308594 L 935.421875 673.046875 L 934.082031 674.417969 L 932.707031 675.757812 C 931.789062 676.648438 930.886719 677.542969 929.964844 678.425781 C 928.078125 680.148438 926.28125 681.941406 924.359375 683.613281 C 920.59375 687.023438 916.703125 690.28125 912.765625 693.449219 C 910.761719 694.992188 908.808594 696.585938 906.769531 698.070312 L 905.261719 699.21875 C 904.757812 699.597656 904.257812 699.980469 903.742188 700.339844 L 900.667969 702.535156 C 884.289062 714.105469 866.769531 723.554688 848.105469 730.886719 C 845.804688 731.828125 843.460938 732.625 841.140625 733.5 C 839.976562 733.917969 838.800781 734.308594 837.632812 734.710938 L 835.875 735.3125 C 835.285156 735.503906 834.695312 735.699219 834.109375 735.890625 L 830.566406 737.011719 L 827.015625 738.054688 L 825.230469 738.574219 L 823.433594 739.050781 L 819.863281 740.003906 C 810.328125 742.414062 800.675781 744.199219 790.910156 745.359375 C 781.144531 746.5 771.265625 747.109375 761.292969 747.269531 C 756.300781 747.335938 751.300781 747.382812 746.273438 747.28125 C 741.246094 747.179688 736.203125 747.078125 731.140625 746.90625 L 723.53125 746.625 L 715.890625 746.296875 L 700.5625 745.585938 C 695.417969 745.386719 690.25 745.191406 685.070312 745.054688 C 679.894531 744.914062 674.675781 744.828125 669.445312 744.859375 L 665.539062 744.871094 L 661.605469 744.933594 C 658.988281 744.964844 656.359375 745.074219 653.730469 745.164062 C 652.421875 745.203125 651.105469 745.273438 649.785156 745.34375 L 645.839844 745.558594 L 641.890625 745.851562 C 640.570312 745.957031 639.253906 746.027344 637.9375 746.171875 C 627.320312 747.101562 616.8125 748.734375 606.417969 751.066406 C 605.109375 751.359375 603.820312 751.710938 602.515625 752.023438 L 600.574219 752.511719 C 599.925781 752.679688 599.277344 752.835938 598.636719 753.035156 L 594.769531 754.160156 L 592.84375 754.722656 L 590.933594 755.351562 L 587.117188 756.628906 C 585.84375 757.046875 584.582031 757.546875 583.332031 758 C 580.816406 758.96875 578.324219 759.96875 575.871094 761.082031 L 574.03125 761.90625 L 572.210938 762.765625 C 570.992188 763.332031 569.800781 763.945312 568.601562 764.554688 C 567.402344 765.164062 566.226562 765.808594 565.046875 766.433594 C 563.863281 767.0625 562.703125 767.746094 561.546875 768.417969 C 556.925781 771.128906 552.476562 774.101562 548.203125 777.335938 C 543.945312 780.5625 539.917969 784.054688 536.128906 787.824219 C 534.230469 789.691406 532.425781 791.644531 530.667969 793.632812 L 529.375 795.148438 C 528.945312 795.65625 528.507812 796.152344 528.105469 796.679688 C 527.289062 797.726562 526.453125 798.75 525.679688 799.824219 C 522.507812 804.046875 519.710938 808.503906 517.292969 813.195312 C 514.90625 817.839844 512.96875 822.664062 511.480469 827.664062 C 514.003906 823.203125 516.832031 818.949219 519.96875 814.894531 C 520.734375 813.890625 521.550781 812.917969 522.339844 811.933594 L 523.578125 810.503906 C 523.996094 810.039062 524.394531 809.542969 524.828125 809.085938 C 525.6875 808.152344 526.523438 807.226562 527.40625 806.332031 L 528.695312 804.992188 L 530.042969 803.683594 C 531.832031 801.933594 533.722656 800.289062 535.601562 798.660156 C 537.484375 797.027344 539.453125 795.5 541.464844 794.035156 C 545.449219 791.085938 549.59375 788.375 553.894531 785.90625 C 558.175781 783.449219 562.574219 781.222656 567.085938 779.21875 C 571.582031 777.222656 576.183594 775.476562 580.839844 773.933594 C 583.164062 773.167969 585.515625 772.476562 587.867188 771.800781 C 589.066406 771.488281 590.21875 771.152344 591.414062 770.871094 L 595.003906 770.019531 L 596.792969 769.589844 L 598.605469 769.222656 L 602.21875 768.492188 C 602.828125 768.355469 603.429688 768.261719 604.039062 768.164062 L 605.859375 767.855469 C 607.074219 767.65625 608.28125 767.421875 609.5 767.25 C 619.308594 765.820312 629.167969 764.949219 639.074219 764.625 C 649.019531 764.261719 659.042969 764.40625 669.121094 764.726562 C 679.195312 765.046875 689.320312 765.628906 699.546875 766.234375 L 714.941406 767.085938 L 722.679688 767.453125 C 725.269531 767.558594 727.863281 767.675781 730.460938 767.761719 C 733.058594 767.851562 735.65625 767.933594 738.273438 767.972656 C 740.890625 768.011719 743.492188 768.082031 746.125 768.074219 C 747.433594 768.078125 748.742188 768.09375 750.058594 768.082031 L 754.003906 768.042969 L 755.972656 768.023438 L 757.949219 767.96875 L 761.902344 767.855469 C 772.546875 767.507812 783.136719 766.535156 793.664062 764.9375 L 795.648438 764.636719 C 796.308594 764.535156 796.96875 764.40625 797.628906 764.292969 L 801.59375 763.582031 L 805.527344 762.761719 L 807.496094 762.34375 L 809.453125 761.882812 L 813.363281 760.953125 L 817.242188 759.917969 L 819.183594 759.394531 L 821.105469 758.824219 L 824.964844 757.675781 C 835.148438 754.472656 845.042969 750.546875 854.65625 745.90625 C 873.859375 736.664062 891.328125 724.855469 907.066406 710.484375 L 909.953125 707.800781 C 910.914062 706.910156 911.835938 705.972656 912.773438 705.054688 C 914.660156 703.234375 916.464844 701.324219 918.273438 699.433594 C 921.820312 695.574219 925.320312 691.695312 928.546875 687.585938 L 929.773438 686.066406 C 930.183594 685.558594 930.570312 685.035156 930.96875 684.519531 C 931.761719 683.484375 932.550781 682.449219 933.332031 681.410156 C 934.097656 680.359375 934.84375 679.285156 935.601562 678.238281 L 936.734375 676.652344 C 937.105469 676.121094 937.464844 675.578125 937.832031 675.039062 L 939.984375 671.796875 C 940.679688 670.699219 941.367188 669.605469 942.050781 668.507812 L 943.074219 666.871094 L 944.050781 665.191406 L 945.96875 661.824219 L 943.355469 664.683594 Z M 942.070312 666.097656 " fill-opacity="1" fill-rule="nonzero"/></g></g></g><g clip-path="url(#220a836f4a)"><g clip-path="url(#6325e61df8)"><g clip-path="url(#1609f76bdc)"><path fill="#1d4ed8" d="M 172.601562 1104.566406 L 173.441406 1106.914062 C 173.722656 1107.699219 174 1108.480469 174.3125 1109.253906 L 176.125 1113.898438 C 178.640625 1120.050781 181.253906 1126.148438 184.238281 1132.066406 C 185.671875 1135.046875 187.238281 1137.964844 188.789062 1140.878906 C 189.574219 1142.335938 190.414062 1143.761719 191.21875 1145.199219 L 192.441406 1147.347656 C 192.847656 1148.066406 193.285156 1148.769531 193.714844 1149.472656 L 196.289062 1153.691406 C 197.171875 1155.082031 198.074219 1156.460938 198.976562 1157.835938 L 200.332031 1159.894531 L 201.738281 1161.921875 L 204.578125 1165.949219 C 198.910156 1154.101562 193.808594 1142.097656 189.621094 1129.808594 C 187.496094 1123.683594 185.609375 1117.492188 183.886719 1111.273438 L 182.648438 1106.59375 C 182.429688 1105.816406 182.238281 1105.035156 182.054688 1104.25 L 181.488281 1101.902344 C 180.703125 1098.78125 180.050781 1095.625 179.375 1092.496094 C 179.039062 1090.925781 178.761719 1089.339844 178.445312 1087.765625 C 178.132812 1086.195312 177.824219 1084.617188 177.574219 1083.027344 L 176.769531 1078.289062 C 176.515625 1076.703125 176.304688 1075.113281 176.070312 1073.53125 L 175.722656 1071.15625 L 175.429688 1068.769531 L 174.839844 1064.007812 L 174.375 1059.234375 L 174.136719 1056.847656 L 173.957031 1054.460938 L 173.605469 1049.6875 L 173.359375 1044.90625 C 173.320312 1044.113281 173.265625 1043.308594 173.226562 1042.523438 L 173.164062 1040.132812 C 173.125 1038.539062 173.0625 1036.945312 173.042969 1035.355469 C 173.042969 1032.171875 172.96875 1028.988281 173.070312 1025.808594 L 173.117188 1023.425781 C 173.136719 1022.628906 173.132812 1021.835938 173.175781 1021.042969 L 173.378906 1016.28125 C 173.421875 1014.691406 173.5625 1013.109375 173.660156 1011.523438 L 173.820312 1009.148438 C 173.867188 1008.359375 173.921875 1007.570312 174 1006.777344 L 174.429688 1002.042969 L 174.535156 1000.855469 L 174.671875 999.675781 L 174.945312 997.304688 C 175.136719 995.734375 175.277344 994.15625 175.515625 992.589844 L 176.167969 987.886719 C 176.269531 987.101562 176.410156 986.320312 176.535156 985.539062 L 176.925781 983.199219 C 177.1875 981.640625 177.417969 980.078125 177.734375 978.527344 L 178.613281 973.871094 C 178.921875 972.324219 179.277344 970.78125 179.605469 969.242188 L 180.105469 966.925781 C 180.269531 966.15625 180.472656 965.390625 180.652344 964.621094 L 181.75 960.027344 L 182.976562 955.460938 L 183.589844 953.175781 L 184.265625 950.910156 L 185.605469 946.382812 L 187.074219 941.882812 C 191.039062 929.84375 195.714844 918.089844 201.09375 906.613281 L 203.121094 902.300781 L 203.628906 901.222656 L 204.15625 900.15625 L 205.21875 898.019531 L 207.339844 893.738281 L 209.558594 889.503906 C 212.484375 883.847656 215.621094 878.28125 218.796875 872.738281 C 219.59375 871.351562 220.417969 869.980469 221.230469 868.601562 C 222.039062 867.21875 222.84375 865.839844 223.679688 864.472656 L 226.199219 860.386719 L 227.457031 858.34375 L 228.738281 856.292969 C 230.453125 853.582031 232.144531 850.855469 233.914062 848.171875 L 236.542969 844.128906 L 239.222656 840.109375 C 240.988281 837.421875 242.820312 834.765625 244.632812 832.101562 C 245.089844 831.4375 245.539062 830.765625 246.003906 830.105469 L 247.398438 828.128906 L 250.21875 824.160156 L 253 820.195312 L 254.386719 818.210938 C 254.847656 817.550781 255.316406 816.890625 255.796875 816.246094 L 261.503906 808.417969 L 264.355469 804.5 C 265.3125 803.210938 266.304688 801.929688 267.277344 800.636719 L 273.117188 792.90625 L 274.578125 790.972656 L 276.082031 789.070312 L 279.066406 785.261719 C 281.066406 782.722656 283.039062 780.160156 285.0625 777.640625 C 293.195312 767.589844 301.421875 757.601562 309.957031 747.859375 L 316.347656 740.546875 L 322.867188 733.335938 L 326.117188 729.71875 C 326.65625 729.113281 327.207031 728.519531 327.761719 727.929688 L 329.425781 726.15625 L 336.058594 719.039062 L 337.71875 717.261719 C 338.273438 716.667969 338.84375 716.09375 339.421875 715.5 L 342.800781 712 L 349.539062 704.996094 L 356.421875 698.097656 L 359.847656 694.640625 L 360.707031 693.777344 L 361.585938 692.925781 L 363.335938 691.230469 L 370.332031 684.421875 C 372.640625 682.121094 375.050781 679.9375 377.410156 677.6875 L 384.515625 670.96875 C 386.9375 668.785156 389.335938 666.574219 391.738281 664.359375 C 396.523438 659.90625 401.449219 655.628906 406.332031 651.253906 C 408.742188 649.035156 411.25 646.941406 413.714844 644.777344 C 416.175781 642.613281 418.65625 640.46875 421.109375 638.28125 C 418.300781 639.984375 415.515625 641.714844 412.726562 643.449219 C 409.9375 645.1875 407.144531 646.914062 404.417969 648.746094 C 398.964844 652.398438 393.4375 655.980469 388.113281 659.832031 C 385.429688 661.730469 382.734375 663.625 380.0625 665.542969 L 372.152344 671.449219 C 366.839844 675.34375 361.714844 679.472656 356.539062 683.558594 C 353.945312 685.578125 351.425781 687.710938 348.886719 689.816406 L 341.289062 696.152344 C 338.789062 698.304688 336.320312 700.488281 333.839844 702.660156 C 331.355469 704.832031 328.847656 706.984375 326.441406 709.242188 L 319.15625 715.949219 L 317.335938 717.632812 C 316.730469 718.191406 316.125 718.753906 315.535156 719.328125 L 311.976562 722.78125 L 304.859375 729.679688 C 302.511719 732.003906 300.210938 734.375 297.890625 736.730469 C 288.59375 746.117188 279.683594 755.910156 270.910156 765.820312 C 268.738281 768.3125 266.613281 770.847656 264.457031 773.363281 L 261.242188 777.144531 L 259.640625 779.039062 L 258.074219 780.964844 L 251.808594 788.679688 C 250.769531 789.96875 249.722656 791.246094 248.699219 792.550781 L 245.664062 796.484375 L 239.597656 804.339844 C 239.085938 804.996094 238.589844 805.648438 238.105469 806.328125 L 236.636719 808.332031 L 233.691406 812.332031 C 229.742188 817.652344 225.890625 823.050781 222.144531 828.527344 L 219.328125 832.636719 L 216.570312 836.800781 C 214.714844 839.558594 212.925781 842.371094 211.121094 845.167969 C 210.675781 845.871094 210.214844 846.566406 209.777344 847.273438 L 208.460938 849.398438 L 205.835938 853.65625 C 204.957031 855.074219 204.121094 856.519531 203.261719 857.953125 C 202.402344 859.386719 201.546875 860.816406 200.710938 862.269531 C 197.402344 868.066406 194.132812 873.921875 191.066406 879.886719 L 188.773438 884.367188 L 186.570312 888.898438 C 185.078125 891.90625 183.683594 894.980469 182.300781 898.039062 C 181.957031 898.804688 181.605469 899.570312 181.265625 900.335938 L 178.300781 907.308594 C 177.644531 908.863281 177.050781 910.441406 176.421875 912.007812 C 175.796875 913.570312 175.171875 915.136719 174.585938 916.722656 C 172.265625 923.0625 170.015625 929.4375 168.128906 935.941406 L 166.691406 940.808594 L 165.378906 945.730469 L 164.734375 948.1875 L 164.15625 950.660156 L 163.007812 955.597656 L 161.988281 960.574219 C 161.820312 961.40625 161.636719 962.234375 161.503906 963.0625 L 161.066406 965.5625 C 160.78125 967.226562 160.46875 968.890625 160.210938 970.5625 L 159.472656 975.582031 C 159.207031 977.25 159.023438 978.929688 158.839844 980.601562 L 158.542969 983.121094 C 158.449219 983.960938 158.34375 984.796875 158.273438 985.640625 C 157.96875 989 157.628906 992.371094 157.453125 995.730469 L 157.300781 998.253906 L 157.222656 999.519531 L 157.179688 1000.78125 L 156.992188 1005.832031 C 156.945312 1006.675781 156.941406 1007.519531 156.9375 1008.359375 L 156.914062 1010.886719 C 156.910156 1012.570312 156.867188 1014.25 156.914062 1015.9375 L 157.007812 1020.980469 C 157.035156 1022.664062 157.132812 1024.34375 157.210938 1026.023438 C 157.335938 1029.382812 157.621094 1032.730469 157.851562 1036.085938 C 157.988281 1037.757812 158.171875 1039.429688 158.335938 1041.097656 L 158.585938 1043.601562 C 158.671875 1044.4375 158.789062 1045.265625 158.890625 1046.105469 L 159.523438 1051.09375 L 160.28125 1056.058594 L 160.664062 1058.539062 L 161.101562 1061.003906 L 162.007812 1065.941406 L 163.035156 1070.851562 C 163.207031 1071.667969 163.367188 1072.492188 163.558594 1073.304688 L 164.136719 1075.746094 C 165.625 1082.257812 167.464844 1088.6875 169.417969 1095.058594 C 170.464844 1098.261719 171.457031 1101.4375 172.601562 1104.566406 Z M 172.601562 1104.566406 " fill-opacity="1" fill-rule="nonzero"/></g></g></g><g clip-path="url(#4b0ecf5ca1)"><g clip-path="url(#9e8ba1b326)"><g clip-path="url(#1d5a005094)"><path fill="#1d4ed8" d="M 493.867188 1235.339844 C 472.503906 1230.226562 451.929688 1222.890625 432.152344 1213.332031 C 412.550781 1203.867188 394.21875 1192.382812 377.152344 1178.878906 C 368.679688 1172.210938 360.640625 1165.058594 353.035156 1157.421875 C 345.425781 1149.78125 338.304688 1141.714844 331.667969 1133.222656 C 325.03125 1124.726562 318.929688 1115.863281 313.359375 1106.632812 C 307.792969 1097.398438 302.796875 1087.867188 298.378906 1078.035156 C 289.40625 1058.203125 282.707031 1037.632812 278.28125 1016.324219 C 274.914062 1000.164062 272.875 983.835938 272.160156 967.34375 C 271.445312 950.851562 272.066406 934.410156 274.027344 918.019531 C 275.378906 906.914062 277.289062 895.90625 279.75 884.992188 C 275.09375 895.324219 271.289062 905.960938 268.332031 916.902344 C 265.328125 927.910156 263.109375 939.078125 261.675781 950.398438 C 258.792969 973.316406 258.933594 996.21875 262.09375 1019.101562 C 265.242188 1042.15625 271.273438 1064.429688 280.1875 1085.925781 C 284.625 1096.703125 289.769531 1107.132812 295.628906 1117.210938 C 301.484375 1127.285156 308 1136.917969 315.171875 1146.105469 C 322.34375 1155.296875 330.105469 1163.953125 338.460938 1172.082031 C 346.816406 1180.210938 355.683594 1187.734375 365.0625 1194.652344 C 383.753906 1208.515625 403.90625 1219.769531 425.511719 1228.414062 C 446.949219 1237.03125 469.136719 1242.722656 492.074219 1245.488281 C 503.402344 1246.839844 514.769531 1247.390625 526.175781 1247.140625 C 537.507812 1246.921875 548.75 1245.804688 559.902344 1243.78125 C 548.71875 1243.519531 537.578125 1242.695312 526.476562 1241.316406 C 515.496094 1239.914062 504.628906 1237.921875 493.867188 1235.339844 Z M 493.867188 1235.339844 " fill-opacity="1" fill-rule="nonzero"/></g></g></g><g clip-path="url(#d0ef2d9343)"><path fill="#1d4ed8" d="M 1401.964844 154.890625 L 1318.488281 574.898438 L 1164.59375 456.839844 C 1164.589844 456.835938 1164.589844 456.835938 1164.589844 456.835938 L 1129.308594 429.769531 L 1328.074219 230.796875 C 1330.578125 228.285156 1330.804688 224.296875 1328.605469 221.527344 C 1326.402344 218.75 1322.46875 218.070312 1319.457031 219.9375 L 1045.382812 390.1875 L 928.328125 344.347656 L 1401.964844 154.890625 " fill-opacity="1" fill-rule="nonzero"/></g><path fill="#1d4ed8" d="M 1150.460938 463.582031 L 1102.769531 523.425781 L 1122.953125 442.476562 Z M 1150.460938 463.582031 " fill-opacity="1" fill-rule="nonzero"/><path fill="#1d4ed8" d="M 1275.542969 263.636719 L 1113.820312 425.535156 C 1113.789062 425.566406 1113.761719 425.605469 1113.722656 425.636719 C 1113.664062 425.695312 1113.609375 425.761719 1113.550781 425.824219 C 1113.503906 425.871094 1113.460938 425.921875 1113.417969 425.976562 C 1113.363281 426.039062 1113.308594 426.105469 1113.261719 426.171875 C 1113.21875 426.222656 1113.179688 426.277344 1113.136719 426.332031 C 1113.085938 426.398438 1113.039062 426.46875 1112.992188 426.539062 C 1112.957031 426.59375 1112.917969 426.648438 1112.882812 426.699219 C 1112.835938 426.773438 1112.792969 426.847656 1112.746094 426.921875 C 1112.714844 426.976562 1112.683594 427.035156 1112.648438 427.09375 C 1112.609375 427.167969 1112.570312 427.246094 1112.53125 427.324219 C 1112.503906 427.382812 1112.472656 427.433594 1112.445312 427.492188 C 1112.410156 427.574219 1112.371094 427.660156 1112.335938 427.742188 C 1112.3125 427.796875 1112.289062 427.851562 1112.265625 427.910156 C 1112.230469 428 1112.199219 428.09375 1112.164062 428.183594 C 1112.152344 428.234375 1112.128906 428.289062 1112.109375 428.335938 C 1112.074219 428.460938 1112.039062 428.582031 1112.007812 428.703125 C 1112 428.730469 1111.992188 428.753906 1111.988281 428.777344 L 1087.953125 525.191406 L 1078.289062 489.679688 L 1054.183594 401.140625 L 1275.542969 263.636719 " fill-opacity="1" fill-rule="nonzero"/></svg>