<svg xmlns="http://www.w3.org/2000/svg" xmlns:xlink="http://www.w3.org/1999/xlink" width="2000" zoomAndPan="magnify" viewBox="0 0 1500 1499.999933" height="2000" preserveAspectRatio="xMidYMid meet" version="1.0"><defs><clipPath id="2ed3a59312"><path d="M 750 0 C 335.785156 0 0 335.785156 0 750 C 0 1164.214844 335.785156 1500 750 1500 C 1164.214844 1500 1500 1164.214844 1500 750 C 1500 335.785156 1164.214844 0 750 0 Z M 750 0 " clip-rule="nonzero"/></clipPath><clipPath id="00baba15fd"><path d="M 0 0 L 1500 0 L 1500 1500 L 0 1500 Z M 0 0 " clip-rule="nonzero"/></clipPath><clipPath id="dff85a4657"><path d="M 750 0 C 335.785156 0 0 335.785156 0 750 C 0 1164.214844 335.785156 1500 750 1500 C 1164.214844 1500 1500 1164.214844 1500 750 C 1500 335.785156 1164.214844 0 750 0 Z M 750 0 " clip-rule="nonzero"/></clipPath><clipPath id="5dbefa1635"><rect x="0" width="1500" y="0" height="1500"/></clipPath><clipPath id="2013cd05a9"><path d="M 57.015625 291.050781 L 1251.765625 291.050781 L 1251.765625 1350 L 57.015625 1350 Z M 57.015625 291.050781 " clip-rule="nonzero"/></clipPath></defs><g clip-path="url(#2ed3a59312)"><g transform="matrix(1, 0, 0, 1, 0, 0.000000000000112861)"><g clip-path="url(#5dbefa1635)"><g clip-path="url(#00baba15fd)"><g clip-path="url(#dff85a4657)"><rect x="-330" width="2160" fill="#ffffff" height="2159.999904" y="-329.999985" fill-opacity="1"/></g></g></g></g></g><g clip-path="url(#2013cd05a9)"><path fill="#1d4ed8" d="M 1251.5 291.074219 L 1041.039062 1349.972656 L 653.054688 1052.332031 C 653.042969 1052.320312 653.042969 1052.320312 653.042969 1052.320312 L 564.089844 984.078125 L 1065.210938 482.4375 C 1071.523438 476.113281 1072.09375 466.058594 1066.542969 459.070312 C 1060.992188 452.074219 1051.074219 450.355469 1043.480469 455.066406 L 352.5 884.285156 L 57.386719 768.71875 L 1251.5 291.074219 " fill-opacity="1" fill-rule="nonzero"/></g><path fill="#1d4ed8" d="M 617.417969 1069.328125 L 497.183594 1220.207031 L 548.0625 1016.113281 Z M 617.417969 1069.328125 " fill-opacity="1" fill-rule="nonzero"/><path fill="#1d4ed8" d="M 932.765625 565.234375 L 525.039062 973.40625 C 524.964844 973.480469 524.890625 973.585938 524.796875 973.660156 C 524.648438 973.808594 524.507812 973.976562 524.359375 974.132812 C 524.246094 974.257812 524.136719 974.386719 524.03125 974.515625 C 523.894531 974.675781 523.753906 974.84375 523.632812 975.011719 C 523.527344 975.140625 523.425781 975.28125 523.324219 975.414062 C 523.191406 975.582031 523.070312 975.757812 522.960938 975.933594 C 522.867188 976.074219 522.765625 976.214844 522.679688 976.34375 C 522.558594 976.53125 522.457031 976.71875 522.335938 976.90625 C 522.261719 977.035156 522.175781 977.183594 522.09375 977.335938 C 521.988281 977.519531 521.886719 977.71875 521.792969 977.914062 C 521.71875 978.0625 521.644531 978.191406 521.578125 978.34375 C 521.484375 978.546875 521.390625 978.761719 521.300781 978.96875 C 521.242188 979.105469 521.179688 979.246094 521.121094 979.394531 C 521.039062 979.621094 520.953125 979.851562 520.871094 980.085938 C 520.832031 980.207031 520.777344 980.347656 520.730469 980.46875 C 520.636719 980.785156 520.554688 981.085938 520.46875 981.394531 C 520.449219 981.46875 520.433594 981.523438 520.421875 981.578125 L 459.832031 1224.65625 L 435.464844 1135.125 L 374.695312 911.902344 L 932.765625 565.234375 " fill-opacity="1" fill-rule="nonzero"/></svg>