<svg xmlns="http://www.w3.org/2000/svg" xmlns:xlink="http://www.w3.org/1999/xlink" width="2000" zoomAndPan="magnify" viewBox="0 0 1500 1499.999933" height="2000" preserveAspectRatio="xMidYMid meet" version="1.0"><defs><clipPath id="1cec3bd40d"><path d="M 750 0 C 335.785156 0 0 335.785156 0 750 C 0 1164.214844 335.785156 1500 750 1500 C 1164.214844 1500 1500 1164.214844 1500 750 C 1500 335.785156 1164.214844 0 750 0 Z M 750 0 " clip-rule="nonzero"/></clipPath><clipPath id="3e791da8f8"><path d="M 0 0 L 1500 0 L 1500 1500 L 0 1500 Z M 0 0 " clip-rule="nonzero"/></clipPath><clipPath id="3c99004d19"><path d="M 750 0 C 335.785156 0 0 335.785156 0 750 C 0 1164.214844 335.785156 1500 750 1500 C 1164.214844 1500 1500 1164.214844 1500 750 C 1500 335.785156 1164.214844 0 750 0 Z M 750 0 " clip-rule="nonzero"/></clipPath><clipPath id="e20bfaa7bd"><rect x="0" width="1500" y="0" height="1500"/></clipPath><clipPath id="2363be3eed"><path d="M 393.226562 402 L 1098.976562 402 L 1098.976562 1027.5 L 393.226562 1027.5 Z M 393.226562 402 " clip-rule="nonzero"/></clipPath><clipPath id="85709b84ed"><path d="M 256 902 L 595 902 L 595 1152 L 256 1152 Z M 256 902 " clip-rule="nonzero"/></clipPath><clipPath id="a390cec83e"><path d="M 681.746094 1166.648438 L 210.769531 1321.402344 L 104.949219 999.34375 L 575.925781 844.589844 Z M 681.746094 1166.648438 " clip-rule="nonzero"/></clipPath><clipPath id="cdd0e3b1c5"><path d="M 681.746094 1166.648438 L 210.769531 1321.402344 L 104.949219 999.34375 L 575.925781 844.589844 Z M 681.746094 1166.648438 " clip-rule="nonzero"/></clipPath><clipPath id="3491eba08a"><path d="M 353 946 L 592 946 L 592 1038 L 353 1038 Z M 353 946 " clip-rule="nonzero"/></clipPath><clipPath id="8ebdf87c14"><path d="M 681.746094 1166.648438 L 210.769531 1321.402344 L 104.949219 999.34375 L 575.925781 844.589844 Z M 681.746094 1166.648438 " clip-rule="nonzero"/></clipPath><clipPath id="67f8c1f3f4"><path d="M 681.746094 1166.648438 L 210.769531 1321.402344 L 104.949219 999.34375 L 575.925781 844.589844 Z M 681.746094 1166.648438 " clip-rule="nonzero"/></clipPath><clipPath id="547bff194c"><path d="M 158 933 L 304 933 L 304 1224 L 158 1224 Z M 158 933 " clip-rule="nonzero"/></clipPath><clipPath id="7bc92cc56f"><path d="M 681.746094 1166.648438 L 210.769531 1321.402344 L 104.949219 999.34375 L 575.925781 844.589844 Z M 681.746094 1166.648438 " clip-rule="nonzero"/></clipPath><clipPath id="acc430cd24"><path d="M 681.746094 1166.648438 L 210.769531 1321.402344 L 104.949219 999.34375 L 575.925781 844.589844 Z M 681.746094 1166.648438 " clip-rule="nonzero"/></clipPath><clipPath id="b69e6c4f28"><path d="M 214 1069 L 380 1069 L 380 1268 L 214 1268 Z M 214 1069 " clip-rule="nonzero"/></clipPath><clipPath id="57f9c53596"><path d="M 681.746094 1166.648438 L 210.769531 1321.402344 L 104.949219 999.34375 L 575.925781 844.589844 Z M 681.746094 1166.648438 " clip-rule="nonzero"/></clipPath><clipPath id="6d795d57be"><path d="M 681.746094 1166.648438 L 210.769531 1321.402344 L 104.949219 999.34375 L 575.925781 844.589844 Z M 681.746094 1166.648438 " clip-rule="nonzero"/></clipPath></defs><g clip-path="url(#1cec3bd40d)"><g transform="matrix(1, 0, 0, 1, 0, 0.000000000000112861)"><g clip-path="url(#e20bfaa7bd)"><g clip-path="url(#3e791da8f8)"><g clip-path="url(#3c99004d19)"><rect x="-330" width="2160" fill="#ffffff" height="2159.999904" y="-329.999985" fill-opacity="1"/></g></g></g></g></g><g clip-path="url(#2363be3eed)"><path fill="#1d4ed8" d="M 1098.59375 402.011719 L 974.3125 1027.3125 L 745.199219 851.546875 C 745.195312 851.542969 745.195312 851.542969 745.195312 851.542969 L 692.667969 811.246094 L 988.585938 515.015625 C 992.316406 511.28125 992.652344 505.34375 989.375 501.21875 C 986.097656 497.085938 980.238281 496.070312 975.753906 498.851562 L 567.71875 752.316406 L 393.449219 684.070312 L 1098.59375 402.011719 " fill-opacity="1" fill-rule="nonzero"/></g><path fill="#1d4ed8" d="M 724.15625 861.585938 L 653.15625 950.683594 L 683.203125 830.164062 Z M 724.15625 861.585938 " fill-opacity="1" fill-rule="nonzero"/><path fill="#1d4ed8" d="M 910.375 563.910156 L 669.605469 804.941406 C 669.5625 804.988281 669.519531 805.046875 669.460938 805.089844 C 669.375 805.179688 669.292969 805.277344 669.203125 805.371094 C 669.136719 805.445312 669.070312 805.519531 669.011719 805.597656 C 668.929688 805.691406 668.847656 805.789062 668.773438 805.890625 C 668.714844 805.96875 668.652344 806.050781 668.59375 806.125 C 668.515625 806.226562 668.445312 806.332031 668.378906 806.433594 C 668.324219 806.519531 668.261719 806.601562 668.210938 806.675781 C 668.140625 806.789062 668.078125 806.898438 668.007812 807.007812 C 667.964844 807.085938 667.914062 807.171875 667.863281 807.261719 C 667.804688 807.371094 667.742188 807.488281 667.6875 807.601562 C 667.644531 807.691406 667.601562 807.769531 667.5625 807.855469 C 667.507812 807.976562 667.453125 808.105469 667.398438 808.226562 C 667.363281 808.308594 667.324219 808.390625 667.292969 808.480469 C 667.242188 808.609375 667.191406 808.75 667.144531 808.886719 C 667.121094 808.957031 667.089844 809.039062 667.0625 809.113281 C 667.003906 809.300781 666.957031 809.476562 666.90625 809.65625 C 666.894531 809.703125 666.882812 809.734375 666.878906 809.769531 L 631.097656 953.308594 L 616.707031 900.441406 L 580.824219 768.621094 L 910.375 563.910156 " fill-opacity="1" fill-rule="nonzero"/><g clip-path="url(#85709b84ed)"><g clip-path="url(#a390cec83e)"><g clip-path="url(#cdd0e3b1c5)"><path fill="#1d4ed8" d="M 313.800781 973.628906 L 312.710938 974.34375 L 310.542969 975.792969 L 308.421875 977.300781 C 308.070312 977.554688 307.710938 977.800781 307.363281 978.0625 L 306.328125 978.847656 C 305.636719 979.375 304.941406 979.894531 304.253906 980.421875 L 302.234375 982.0625 C 301.898438 982.335938 301.550781 982.601562 301.226562 982.886719 L 300.242188 983.738281 C 299.589844 984.308594 298.925781 984.867188 298.285156 985.453125 C 297.011719 986.628906 295.714844 987.78125 294.492188 989.007812 C 291.992188 991.410156 289.636719 993.949219 287.339844 996.539062 L 285.660156 998.519531 L 285.238281 999.015625 L 284.832031 999.519531 L 284.019531 1000.53125 L 283.207031 1001.546875 L 282.800781 1002.050781 L 282.410156 1002.566406 L 280.847656 1004.640625 C 278.808594 1007.433594 276.832031 1010.277344 275.027344 1013.226562 C 271.371094 1019.121094 268.214844 1025.265625 265.554688 1031.667969 C 265.226562 1032.46875 264.917969 1033.277344 264.597656 1034.082031 L 264.125 1035.289062 C 263.96875 1035.695312 263.828125 1036.101562 263.679688 1036.507812 L 262.804688 1038.949219 L 262.003906 1041.417969 L 261.605469 1042.652344 L 261.242188 1043.898438 L 260.519531 1046.394531 L 259.875 1048.910156 L 259.558594 1050.171875 L 259.277344 1051.441406 C 259.089844 1052.285156 258.898438 1053.128906 258.71875 1053.976562 L 258.234375 1056.53125 C 258.15625 1056.957031 258.070312 1057.382812 258 1057.8125 L 257.796875 1059.09375 C 257.667969 1059.953125 257.523438 1060.808594 257.410156 1061.667969 L 257.09375 1064.25 C 257.046875 1064.679688 256.984375 1065.109375 256.953125 1065.546875 L 256.839844 1066.84375 L 256.730469 1068.128906 C 256.691406 1068.5625 256.65625 1068.992188 256.632812 1069.429688 L 256.488281 1072.03125 L 256.453125 1072.679688 L 256.441406 1073.332031 L 256.410156 1074.636719 C 256.394531 1075.507812 256.359375 1076.375 256.375 1077.25 L 256.410156 1079.863281 C 256.433594 1080.734375 256.492188 1081.605469 256.53125 1082.476562 L 256.601562 1083.78125 C 256.632812 1084.214844 256.675781 1084.652344 256.710938 1085.085938 L 256.941406 1087.699219 L 257.265625 1090.308594 C 257.324219 1090.742188 257.363281 1091.179688 257.4375 1091.613281 L 257.652344 1092.910156 C 258.765625 1099.933594 260.738281 1106.703125 263.574219 1113.222656 C 264.332031 1114.835938 265.050781 1116.460938 265.925781 1118.023438 L 266.875 1119.792969 L 267.222656 1120.367188 L 268.605469 1122.664062 C 269.566406 1124.183594 270.589844 1125.679688 271.6875 1127.105469 C 272.222656 1127.832031 272.800781 1128.523438 273.363281 1129.222656 L 274.234375 1130.25 L 274.675781 1130.757812 L 275.128906 1131.257812 C 276.324219 1132.601562 277.59375 1133.871094 278.890625 1135.105469 C 280.191406 1136.339844 281.5625 1137.496094 282.960938 1138.613281 C 285.785156 1140.84375 288.773438 1142.8125 291.933594 1144.527344 C 292.71875 1144.96875 293.53125 1145.355469 294.332031 1145.757812 L 295.554688 1146.324219 L 296.167969 1146.605469 L 296.792969 1146.867188 C 298.441406 1147.574219 300.140625 1148.195312 301.859375 1148.746094 C 303.582031 1149.289062 305.332031 1149.746094 307.101562 1150.117188 C 308.878906 1150.46875 310.671875 1150.746094 312.476562 1150.921875 C 312.925781 1150.96875 313.382812 1150.992188 313.832031 1151.027344 L 314.511719 1151.078125 C 314.738281 1151.089844 314.964844 1151.09375 315.191406 1151.101562 L 316.550781 1151.144531 L 317.914062 1151.132812 C 318.367188 1151.140625 318.820312 1151.113281 319.273438 1151.089844 C 319.726562 1151.066406 320.175781 1151.054688 320.636719 1151.007812 L 322.011719 1150.878906 C 322.242188 1150.863281 322.46875 1150.832031 322.699219 1150.796875 L 323.382812 1150.703125 C 324.292969 1150.582031 325.1875 1150.398438 326.085938 1150.234375 C 326.53125 1150.140625 326.976562 1150.03125 327.414062 1149.929688 L 328.078125 1149.773438 L 328.730469 1149.589844 C 330.480469 1149.113281 332.195312 1148.527344 333.871094 1147.835938 L 335.117188 1147.304688 C 335.53125 1147.132812 335.929688 1146.925781 336.339844 1146.734375 C 337.15625 1146.363281 337.941406 1145.921875 338.734375 1145.507812 C 339.125 1145.289062 339.511719 1145.058594 339.898438 1144.835938 L 340.476562 1144.496094 L 341.042969 1144.132812 C 341.417969 1143.890625 341.796875 1143.652344 342.167969 1143.402344 L 343.265625 1142.632812 C 344.722656 1141.597656 346.109375 1140.476562 347.429688 1139.273438 C 348.101562 1138.695312 348.722656 1138.046875 349.363281 1137.425781 C 349.671875 1137.105469 349.972656 1136.777344 350.277344 1136.453125 C 350.429688 1136.289062 350.582031 1136.128906 350.730469 1135.960938 L 351.167969 1135.460938 C 353.523438 1132.753906 355.496094 1129.792969 357.082031 1126.574219 C 357.859375 1124.964844 358.527344 1123.308594 359.082031 1121.605469 C 359.214844 1121.179688 359.335938 1120.75 359.460938 1120.320312 C 359.523438 1120.105469 359.585938 1119.890625 359.644531 1119.675781 L 359.796875 1119.023438 C 359.894531 1118.585938 360.007812 1118.15625 360.085938 1117.71875 L 360.316406 1116.390625 L 360.371094 1116.0625 L 360.414062 1115.730469 L 360.496094 1115.0625 C 360.542969 1114.621094 360.609375 1114.179688 360.628906 1113.734375 L 360.714844 1112.402344 C 360.730469 1111.957031 360.726562 1111.503906 360.730469 1111.050781 L 360.730469 1110.378906 L 360.6875 1109.707031 C 360.660156 1109.257812 360.640625 1108.8125 360.605469 1108.363281 C 360.492188 1107.476562 360.40625 1106.585938 360.222656 1105.71875 L 360.097656 1105.0625 L 360.035156 1104.738281 L 359.953125 1104.40625 L 359.628906 1103.121094 C 359.523438 1102.691406 359.375 1102.277344 359.25 1101.855469 L 359.042969 1101.226562 C 358.972656 1101.019531 358.890625 1100.816406 358.8125 1100.609375 L 358.351562 1099.382812 L 357.824219 1098.183594 C 357.730469 1097.984375 357.652344 1097.78125 357.550781 1097.585938 L 357.257812 1097.003906 L 356.960938 1096.425781 C 356.863281 1096.230469 356.769531 1096.035156 356.65625 1095.847656 L 356.007812 1094.722656 L 355.847656 1094.441406 L 355.667969 1094.167969 L 355.3125 1093.625 C 354.859375 1092.890625 354.332031 1092.203125 353.832031 1091.503906 C 353.574219 1091.164062 353.300781 1090.832031 353.03125 1090.496094 L 352.628906 1089.996094 L 352.203125 1089.511719 C 351.917969 1089.191406 351.632812 1088.871094 351.351562 1088.554688 L 350.453125 1087.640625 C 349.242188 1086.4375 347.949219 1085.332031 346.574219 1084.316406 L 346.0625 1083.9375 C 345.894531 1083.8125 345.710938 1083.695312 345.535156 1083.574219 L 344.480469 1082.867188 L 343.386719 1082.21875 C 343.203125 1082.113281 343.027344 1081.996094 342.839844 1081.898438 L 341.714844 1081.3125 C 341.527344 1081.214844 341.339844 1081.117188 341.144531 1081.035156 L 339.992188 1080.519531 C 339.609375 1080.34375 339.207031 1080.207031 338.816406 1080.050781 L 338.230469 1079.824219 C 338.027344 1079.753906 337.832031 1079.695312 337.628906 1079.628906 C 336.035156 1079.089844 334.40625 1078.707031 332.742188 1078.476562 L 331.5 1078.324219 C 331.085938 1078.292969 330.667969 1078.277344 330.253906 1078.253906 C 330.046875 1078.246094 329.84375 1078.226562 329.632812 1078.226562 L 329.011719 1078.234375 L 328.390625 1078.246094 C 328.183594 1078.242188 327.976562 1078.25 327.769531 1078.269531 L 326.535156 1078.375 C 326.332031 1078.394531 326.128906 1078.421875 325.925781 1078.457031 L 324.707031 1078.652344 C 324.507812 1078.683594 324.308594 1078.742188 324.105469 1078.785156 L 322.917969 1079.066406 L 324.128906 1078.949219 C 324.332031 1078.929688 324.53125 1078.898438 324.734375 1078.894531 L 325.34375 1078.871094 L 325.949219 1078.851562 C 326.152344 1078.847656 326.351562 1078.835938 326.554688 1078.847656 L 327.773438 1078.925781 C 327.976562 1078.929688 328.175781 1078.953125 328.375 1078.976562 L 328.976562 1079.039062 L 329.574219 1079.101562 C 329.773438 1079.125 329.96875 1079.167969 330.167969 1079.199219 C 330.5625 1079.273438 330.957031 1079.335938 331.347656 1079.410156 L 332.511719 1079.695312 C 332.898438 1079.777344 333.28125 1079.914062 333.660156 1080.03125 C 334.042969 1080.148438 334.421875 1080.253906 334.792969 1080.40625 L 335.902344 1080.824219 C 336.269531 1080.980469 336.628906 1081.148438 336.988281 1081.308594 C 337.167969 1081.386719 337.351562 1081.464844 337.527344 1081.554688 L 338.054688 1081.828125 C 338.402344 1082.011719 338.757812 1082.179688 339.097656 1082.378906 L 340.113281 1082.980469 C 340.28125 1083.078125 340.449219 1083.183594 340.609375 1083.296875 L 341.097656 1083.625 C 341.757812 1084.046875 342.375 1084.542969 343.003906 1085.003906 L 343.910156 1085.753906 C 344.0625 1085.882812 344.214844 1086 344.359375 1086.132812 L 344.789062 1086.527344 C 345.945312 1087.574219 347.015625 1088.703125 348.003906 1089.910156 L 348.734375 1090.820312 C 348.96875 1091.128906 349.1875 1091.449219 349.417969 1091.757812 L 349.75 1092.230469 L 350.070312 1092.71875 C 350.277344 1093.042969 350.496094 1093.359375 350.699219 1093.6875 C 351.082031 1094.355469 351.488281 1095.007812 351.828125 1095.699219 L 352.09375 1096.207031 L 352.226562 1096.464844 L 352.34375 1096.726562 L 352.820312 1097.765625 C 352.90625 1097.9375 352.96875 1098.117188 353.042969 1098.292969 L 353.25 1098.824219 L 353.460938 1099.355469 C 353.535156 1099.53125 353.582031 1099.71875 353.640625 1099.898438 L 353.992188 1100.976562 L 354.292969 1102.070312 C 354.34375 1102.25 354.398438 1102.429688 354.441406 1102.613281 L 354.558594 1103.164062 C 354.632812 1103.53125 354.726562 1103.894531 354.785156 1104.265625 L 354.960938 1105.371094 L 355.003906 1105.648438 L 355.085938 1106.480469 C 355.179688 1107.214844 355.175781 1107.957031 355.210938 1108.691406 C 355.210938 1109.058594 355.195312 1109.429688 355.1875 1109.796875 L 355.171875 1110.335938 L 355.121094 1110.886719 C 355.085938 1111.257812 355.066406 1111.621094 355.019531 1111.980469 L 354.855469 1113.078125 C 354.8125 1113.449219 354.722656 1113.804688 354.648438 1114.167969 L 354.539062 1114.710938 L 354.484375 1114.980469 L 354.410156 1115.246094 L 354.128906 1116.316406 C 354.03125 1116.671875 353.90625 1117.019531 353.796875 1117.371094 L 353.628906 1117.898438 C 353.566406 1118.070312 353.496094 1118.242188 353.441406 1118.414062 C 353.308594 1118.757812 353.183594 1119.105469 353.042969 1119.4375 C 352.472656 1120.796875 351.8125 1122.117188 351.070312 1123.390625 C 350.886719 1123.710938 350.679688 1124.015625 350.484375 1124.332031 L 350.191406 1124.800781 L 349.878906 1125.261719 C 349.664062 1125.5625 349.460938 1125.871094 349.246094 1126.167969 L 348.570312 1127.046875 C 347.660156 1128.214844 346.679688 1129.316406 345.628906 1130.355469 L 345.238281 1130.75 C 345.101562 1130.878906 344.960938 1131 344.824219 1131.128906 L 344.011719 1131.878906 C 343.441406 1132.351562 342.898438 1132.847656 342.304688 1133.292969 C 341.140625 1134.207031 339.929688 1135.050781 338.667969 1135.820312 L 337.722656 1136.390625 C 337.402344 1136.574219 337.074219 1136.742188 336.753906 1136.921875 L 336.273438 1137.1875 L 335.777344 1137.433594 C 335.449219 1137.59375 335.121094 1137.761719 334.789062 1137.921875 C 334.117188 1138.210938 333.460938 1138.535156 332.773438 1138.789062 C 332.433594 1138.917969 332.097656 1139.066406 331.75 1139.183594 L 330.71875 1139.546875 C 330.378906 1139.671875 330.023438 1139.761719 329.679688 1139.875 C 329.332031 1139.984375 328.988281 1140.101562 328.632812 1140.175781 L 327.582031 1140.449219 C 327.230469 1140.53125 326.875 1140.597656 326.523438 1140.679688 L 325.992188 1140.792969 L 325.460938 1140.882812 C 325.105469 1140.941406 324.753906 1141.003906 324.398438 1141.054688 C 323.683594 1141.132812 322.976562 1141.246094 322.265625 1141.28125 L 321.730469 1141.324219 C 321.558594 1141.339844 321.382812 1141.351562 321.203125 1141.351562 L 320.144531 1141.382812 C 319.792969 1141.398438 319.425781 1141.378906 319.070312 1141.378906 C 318.714844 1141.378906 318.355469 1141.375 317.988281 1141.347656 L 316.898438 1141.296875 L 315.820312 1141.199219 C 315.636719 1141.183594 315.453125 1141.171875 315.28125 1141.148438 L 314.746094 1141.078125 C 314.386719 1141.027344 314.027344 1140.992188 313.667969 1140.933594 C 307.953125 1140.050781 302.421875 1137.90625 297.425781 1134.863281 C 294.910156 1133.339844 292.546875 1131.609375 290.335938 1129.675781 C 289.792969 1129.183594 289.234375 1128.707031 288.710938 1128.191406 C 288.449219 1127.9375 288.175781 1127.691406 287.921875 1127.425781 L 287.148438 1126.648438 C 286.132812 1125.589844 285.140625 1124.511719 284.21875 1123.375 L 283.867188 1122.953125 L 283.53125 1122.53125 L 282.855469 1121.664062 C 282.425781 1121.074219 281.980469 1120.496094 281.574219 1119.890625 C 280.738281 1118.695312 279.96875 1117.46875 279.238281 1116.199219 L 278.175781 1114.269531 L 277.910156 1113.785156 L 277.667969 1113.289062 L 277.1875 1112.292969 C 276.511719 1110.984375 275.976562 1109.597656 275.394531 1108.238281 C 275.121094 1107.550781 274.882812 1106.847656 274.621094 1106.15625 L 274.238281 1105.113281 L 273.902344 1104.050781 C 273.683594 1103.339844 273.449219 1102.636719 273.242188 1101.921875 L 272.671875 1099.761719 C 272.464844 1099.046875 272.324219 1098.3125 272.164062 1097.582031 L 271.925781 1096.488281 L 271.804688 1095.941406 L 271.710938 1095.386719 L 271.324219 1093.171875 C 271.253906 1092.804688 271.207031 1092.429688 271.160156 1092.058594 L 271.011719 1090.941406 C 269.472656 1079.011719 270.449219 1066.621094 273.394531 1054.789062 L 273.667969 1053.675781 L 273.972656 1052.574219 L 274.582031 1050.367188 L 275.261719 1048.179688 L 275.597656 1047.085938 L 275.972656 1046.003906 L 276.714844 1043.835938 L 277.527344 1041.691406 C 277.664062 1041.335938 277.789062 1040.976562 277.933594 1040.621094 L 278.371094 1039.5625 C 278.664062 1038.855469 278.949219 1038.148438 279.25 1037.445312 C 281.679688 1031.820312 284.539062 1026.421875 287.824219 1021.25 C 289.445312 1018.660156 291.207031 1016.15625 293.027344 1013.703125 L 294.417969 1011.882812 L 294.769531 1011.425781 L 295.128906 1010.980469 L 295.871094 1010.097656 L 296.59375 1009.210938 C 296.714844 1009.0625 296.832031 1008.910156 296.957031 1008.765625 L 297.328125 1008.332031 L 298.824219 1006.589844 C 300.859375 1004.3125 302.933594 1002.070312 305.140625 999.960938 C 306.21875 998.882812 307.367188 997.878906 308.484375 996.839844 C 309.050781 996.332031 309.640625 995.84375 310.214844 995.34375 L 311.078125 994.597656 C 311.367188 994.347656 311.667969 994.113281 311.960938 993.871094 L 313.734375 992.429688 C 314.332031 991.960938 314.941406 991.496094 315.542969 991.039062 L 316.453125 990.347656 C 316.757812 990.117188 317.070312 989.902344 317.378906 989.683594 L 319.238281 988.359375 L 321.132812 987.089844 L 322.078125 986.457031 L 323.046875 985.851562 L 324.972656 984.648438 L 326.941406 983.503906 L 327.925781 982.929688 L 328.925781 982.390625 L 330.929688 981.3125 L 332.972656 980.28125 C 333.65625 979.9375 334.351562 979.625 335.042969 979.292969 C 337.8125 978 340.632812 976.804688 343.511719 975.707031 C 355.015625 971.335938 367.253906 968.59375 379.742188 966.871094 C 382.867188 966.449219 386.011719 966.085938 389.167969 965.78125 C 392.320312 965.457031 395.496094 965.214844 398.675781 965.003906 C 405.039062 964.589844 411.445312 964.34375 417.886719 964.210938 C 421.101562 964.148438 424.339844 964.109375 427.570312 964.0625 L 437.3125 964.007812 C 443.820312 963.96875 450.355469 963.949219 456.917969 963.839844 C 463.480469 963.730469 470.070312 963.523438 476.667969 963.164062 C 483.269531 962.808594 489.886719 962.246094 496.480469 961.421875 C 503.078125 960.59375 509.667969 959.527344 516.179688 958.035156 C 519.4375 957.320312 522.699219 956.492188 525.902344 955.542969 C 529.101562 954.59375 532.296875 953.566406 535.433594 952.410156 C 538.570312 951.253906 541.671875 949.992188 544.714844 948.617188 C 547.761719 947.246094 550.75 945.742188 553.679688 944.148438 C 554.40625 943.730469 555.144531 943.351562 555.867188 942.925781 L 558.023438 941.664062 C 559.445312 940.789062 560.867188 939.917969 562.25 938.984375 L 563.292969 938.296875 L 564.320312 937.585938 L 565.34375 936.871094 L 565.855469 936.511719 L 566.359375 936.140625 L 568.371094 934.648438 L 570.335938 933.109375 C 572.921875 931.007812 575.421875 928.820312 577.785156 926.492188 L 579.539062 924.726562 C 580.109375 924.125 580.667969 923.511719 581.238281 922.917969 L 581.660156 922.460938 L 582.070312 921.996094 L 582.886719 921.058594 L 583.699219 920.121094 L 584.476562 919.152344 C 588.660156 914.039062 592.15625 908.492188 594.953125 902.503906 C 591.460938 907.996094 587.398438 913.03125 582.769531 917.605469 C 580.488281 919.875 578.09375 922.011719 575.585938 924.023438 C 573.082031 926.023438 570.496094 927.910156 567.828125 929.671875 L 565.816406 930.972656 L 563.769531 932.21875 L 563.261719 932.53125 L 562.738281 932.828125 L 561.703125 933.421875 L 560.664062 934.015625 L 559.609375 934.585938 C 558.21875 935.359375 556.785156 936.066406 555.367188 936.785156 L 553.207031 937.820312 C 552.492188 938.164062 551.753906 938.472656 551.03125 938.808594 C 548.117188 940.089844 545.171875 941.296875 542.175781 942.367188 C 539.179688 943.441406 536.15625 944.421875 533.105469 945.300781 C 530.054688 946.179688 526.972656 946.945312 523.863281 947.621094 C 520.757812 948.296875 517.660156 948.898438 514.507812 949.359375 L 512.148438 949.714844 L 510.96875 949.890625 C 510.574219 949.949219 510.183594 950.007812 509.789062 950.050781 L 505.042969 950.625 L 504.453125 950.695312 L 503.855469 950.75 L 500.28125 951.078125 C 498.699219 951.238281 497.101562 951.332031 495.507812 951.441406 L 493.121094 951.605469 C 492.324219 951.65625 491.523438 951.683594 490.722656 951.722656 L 488.328125 951.832031 C 487.53125 951.867188 486.730469 951.910156 485.929688 951.921875 L 481.125 952.054688 L 476.316406 952.097656 C 469.898438 952.136719 463.441406 952.019531 456.972656 951.855469 C 444.03125 951.492188 431.003906 950.898438 417.816406 950.738281 C 411.214844 950.679688 404.585938 950.710938 397.9375 950.988281 C 394.613281 951.125 391.28125 951.296875 387.941406 951.550781 C 384.601562 951.800781 381.265625 952.117188 377.925781 952.5 C 371.199219 953.265625 364.527344 954.375 357.917969 955.835938 C 351.222656 957.3125 344.65625 959.222656 338.21875 961.574219 C 334.988281 962.761719 331.800781 964.089844 328.65625 965.53125 C 327.871094 965.898438 327.082031 966.25 326.308594 966.632812 L 323.976562 967.785156 L 321.667969 969.007812 L 320.515625 969.621094 L 319.382812 970.269531 L 317.121094 971.570312 L 314.902344 972.945312 Z M 313.800781 973.628906 " fill-opacity="1" fill-rule="nonzero"/></g></g></g><g clip-path="url(#3491eba08a)"><g clip-path="url(#8ebdf87c14)"><g clip-path="url(#67f8c1f3f4)"><path fill="#1d4ed8" d="M 589.136719 949.210938 L 588.410156 949.984375 L 586.964844 951.519531 L 585.492188 953.019531 L 584.757812 953.769531 L 584.003906 954.507812 C 583.503906 954.996094 583.007812 955.484375 582.503906 955.96875 C 581.46875 956.914062 580.480469 957.894531 579.429688 958.8125 C 577.363281 960.683594 575.230469 962.46875 573.074219 964.207031 C 571.972656 965.050781 570.902344 965.925781 569.785156 966.738281 L 568.957031 967.367188 C 568.683594 967.574219 568.40625 967.785156 568.125 967.984375 L 566.441406 969.1875 C 557.460938 975.53125 547.855469 980.710938 537.621094 984.730469 C 536.363281 985.246094 535.078125 985.683594 533.804688 986.164062 C 533.167969 986.390625 532.523438 986.605469 531.882812 986.828125 L 530.917969 987.15625 C 530.59375 987.261719 530.273438 987.367188 529.949219 987.472656 L 528.007812 988.089844 L 526.0625 988.660156 L 525.082031 988.945312 L 524.097656 989.207031 L 522.140625 989.726562 C 516.914062 991.050781 511.621094 992.027344 506.265625 992.664062 C 500.914062 993.289062 495.496094 993.621094 490.027344 993.710938 C 487.292969 993.75 484.554688 993.773438 481.796875 993.71875 C 479.039062 993.664062 476.273438 993.605469 473.5 993.511719 L 469.328125 993.359375 L 465.136719 993.175781 L 456.734375 992.789062 C 453.914062 992.679688 451.082031 992.574219 448.242188 992.496094 C 445.40625 992.417969 442.542969 992.375 439.675781 992.390625 L 437.535156 992.394531 L 435.378906 992.429688 C 433.945312 992.445312 432.5 992.507812 431.0625 992.558594 C 430.34375 992.578125 429.621094 992.617188 428.898438 992.65625 L 426.734375 992.773438 L 424.570312 992.933594 C 423.847656 992.992188 423.125 993.03125 422.402344 993.109375 C 416.582031 993.617188 410.820312 994.511719 405.121094 995.792969 C 404.40625 995.953125 403.695312 996.144531 402.984375 996.316406 L 401.917969 996.585938 C 401.5625 996.675781 401.207031 996.761719 400.855469 996.871094 L 397.679688 997.796875 L 396.632812 998.140625 L 394.539062 998.84375 C 393.84375 999.070312 393.152344 999.34375 392.464844 999.59375 C 391.085938 1000.125 389.71875 1000.675781 388.375 1001.285156 L 387.367188 1001.734375 L 386.367188 1002.207031 C 385.699219 1002.519531 385.046875 1002.855469 384.390625 1003.1875 C 383.734375 1003.523438 383.089844 1003.875 382.441406 1004.21875 C 381.792969 1004.5625 381.15625 1004.9375 380.523438 1005.304688 C 377.988281 1006.792969 375.550781 1008.421875 373.207031 1010.195312 C 370.871094 1011.964844 368.664062 1013.878906 366.585938 1015.945312 C 365.546875 1016.96875 364.558594 1018.039062 363.59375 1019.128906 L 362.882812 1019.960938 C 362.648438 1020.238281 362.410156 1020.511719 362.1875 1020.800781 C 361.742188 1021.371094 361.28125 1021.933594 360.859375 1022.523438 C 359.117188 1024.839844 357.585938 1027.28125 356.257812 1029.855469 C 354.953125 1032.398438 353.890625 1035.042969 353.074219 1037.789062 C 354.457031 1035.339844 356.007812 1033.007812 357.726562 1030.785156 C 358.148438 1030.234375 358.597656 1029.703125 359.027344 1029.164062 L 359.707031 1028.378906 C 359.933594 1028.125 360.15625 1027.851562 360.390625 1027.601562 C 360.863281 1027.089844 361.320312 1026.582031 361.804688 1026.089844 L 362.511719 1025.355469 L 363.25 1024.640625 C 364.230469 1023.679688 365.265625 1022.78125 366.296875 1021.886719 C 367.332031 1020.992188 368.410156 1020.152344 369.511719 1019.351562 C 371.695312 1017.734375 373.96875 1016.246094 376.328125 1014.890625 C 378.675781 1013.546875 381.085938 1012.324219 383.558594 1011.226562 C 386.023438 1010.132812 388.546875 1009.175781 391.097656 1008.328125 C 392.375 1007.910156 393.660156 1007.53125 394.953125 1007.160156 C 395.609375 1006.988281 396.242188 1006.804688 396.898438 1006.652344 L 398.863281 1006.183594 L 399.847656 1005.949219 L 400.839844 1005.746094 L 402.820312 1005.34375 C 403.152344 1005.273438 403.484375 1005.21875 403.816406 1005.167969 L 404.816406 1004.996094 C 405.480469 1004.886719 406.144531 1004.757812 406.8125 1004.664062 C 412.191406 1003.882812 417.59375 1003.402344 423.027344 1003.226562 C 428.476562 1003.027344 433.972656 1003.105469 439.496094 1003.28125 C 445.019531 1003.457031 450.574219 1003.777344 456.179688 1004.109375 L 464.617188 1004.574219 L 468.863281 1004.777344 C 470.28125 1004.835938 471.703125 1004.898438 473.125 1004.945312 C 474.550781 1004.996094 475.976562 1005.039062 477.410156 1005.0625 C 478.84375 1005.082031 480.273438 1005.121094 481.714844 1005.117188 C 482.429688 1005.117188 483.148438 1005.128906 483.871094 1005.121094 L 486.03125 1005.101562 L 487.113281 1005.089844 L 488.195312 1005.058594 L 490.363281 1005 C 496.199219 1004.808594 502.003906 1004.273438 507.777344 1003.398438 L 508.863281 1003.234375 C 509.226562 1003.175781 509.589844 1003.105469 509.949219 1003.042969 L 512.125 1002.652344 L 514.28125 1002.203125 L 515.359375 1001.976562 L 516.433594 1001.722656 L 518.578125 1001.214844 L 521.765625 1000.359375 L 522.820312 1000.046875 L 524.9375 999.414062 C 530.519531 997.660156 535.945312 995.507812 541.214844 992.964844 C 551.742188 987.894531 561.320312 981.421875 569.949219 973.546875 L 571.53125 972.074219 C 572.058594 971.585938 572.5625 971.070312 573.078125 970.566406 C 574.113281 969.570312 575.101562 968.523438 576.09375 967.484375 C 578.039062 965.371094 579.957031 963.242188 581.726562 960.992188 L 582.398438 960.15625 C 582.621094 959.878906 582.832031 959.59375 583.050781 959.308594 C 583.488281 958.742188 583.917969 958.175781 584.347656 957.605469 C 584.765625 957.03125 585.175781 956.441406 585.59375 955.863281 L 586.210938 954.996094 C 586.417969 954.703125 586.613281 954.40625 586.816406 954.109375 L 587.992188 952.335938 C 588.375 951.734375 588.753906 951.132812 589.128906 950.53125 L 589.6875 949.632812 L 590.222656 948.714844 L 591.273438 946.867188 L 589.84375 948.433594 Z M 589.136719 949.210938 " fill-opacity="1" fill-rule="nonzero"/></g></g></g><g clip-path="url(#547bff194c)"><g clip-path="url(#7bc92cc56f)"><g clip-path="url(#acc430cd24)"><path fill="#1d4ed8" d="M 167.289062 1189.59375 L 167.75 1190.882812 C 167.902344 1191.3125 168.054688 1191.738281 168.226562 1192.164062 L 169.21875 1194.710938 C 170.597656 1198.082031 172.03125 1201.425781 173.667969 1204.667969 C 174.453125 1206.304688 175.3125 1207.902344 176.164062 1209.5 C 176.59375 1210.300781 177.054688 1211.082031 177.496094 1211.871094 L 178.167969 1213.046875 C 178.386719 1213.441406 178.628906 1213.828125 178.863281 1214.214844 L 180.273438 1216.527344 C 180.757812 1217.289062 181.253906 1218.042969 181.75 1218.796875 L 182.492188 1219.925781 L 183.261719 1221.039062 L 184.820312 1223.246094 C 181.710938 1216.75 178.914062 1210.167969 176.621094 1203.433594 C 175.457031 1200.074219 174.421875 1196.679688 173.476562 1193.269531 L 172.796875 1190.707031 C 172.679688 1190.28125 172.574219 1189.851562 172.472656 1189.421875 L 172.160156 1188.132812 C 171.730469 1186.421875 171.371094 1184.691406 171.003906 1182.976562 C 170.820312 1182.113281 170.664062 1181.246094 170.492188 1180.382812 C 170.320312 1179.523438 170.152344 1178.65625 170.015625 1177.785156 L 169.574219 1175.1875 C 169.4375 1174.316406 169.320312 1173.445312 169.191406 1172.578125 L 169 1171.277344 L 168.839844 1169.96875 L 168.515625 1167.355469 L 168.261719 1164.742188 L 168.128906 1163.433594 L 168.03125 1162.125 L 167.839844 1159.507812 L 167.703125 1156.886719 C 167.683594 1156.449219 167.652344 1156.011719 167.632812 1155.578125 L 167.597656 1154.269531 C 167.574219 1153.394531 167.542969 1152.523438 167.53125 1151.652344 C 167.53125 1149.902344 167.488281 1148.160156 167.546875 1146.414062 L 167.570312 1145.109375 C 167.582031 1144.671875 167.578125 1144.238281 167.605469 1143.800781 L 167.714844 1141.191406 C 167.738281 1140.320312 167.816406 1139.453125 167.871094 1138.585938 L 167.957031 1137.28125 C 167.984375 1136.847656 168.011719 1136.417969 168.054688 1135.980469 L 168.347656 1132.738281 L 168.425781 1132.089844 L 168.574219 1130.789062 C 168.679688 1129.925781 168.757812 1129.0625 168.886719 1128.203125 L 169.246094 1125.625 C 169.300781 1125.195312 169.375 1124.769531 169.445312 1124.339844 L 169.660156 1123.058594 C 169.804688 1122.203125 169.929688 1121.34375 170.101562 1120.496094 L 170.585938 1117.941406 C 170.753906 1117.09375 170.949219 1116.25 171.128906 1115.402344 L 171.402344 1114.132812 C 171.492188 1113.710938 171.605469 1113.292969 171.703125 1112.871094 L 172.304688 1110.351562 L 172.976562 1107.847656 L 173.3125 1106.597656 L 173.683594 1105.355469 L 174.417969 1102.871094 L 175.222656 1100.402344 C 177.398438 1093.804688 179.960938 1087.359375 182.910156 1081.070312 L 184.023438 1078.707031 L 184.300781 1078.113281 L 184.589844 1077.527344 L 185.171875 1076.355469 L 186.332031 1074.011719 L 187.550781 1071.691406 C 189.152344 1068.585938 190.875 1065.535156 192.617188 1062.5 C 193.050781 1061.738281 193.503906 1060.984375 193.949219 1060.230469 C 194.394531 1059.472656 194.832031 1058.714844 195.292969 1057.964844 L 196.671875 1055.726562 L 197.363281 1054.605469 L 198.0625 1053.484375 C 199.003906 1051.996094 199.933594 1050.5 200.902344 1049.027344 L 202.34375 1046.8125 L 203.8125 1044.609375 C 204.78125 1043.136719 205.785156 1041.679688 206.78125 1040.21875 C 207.03125 1039.855469 207.273438 1039.488281 207.53125 1039.125 L 208.296875 1038.042969 L 209.84375 1035.867188 L 211.367188 1033.691406 L 212.128906 1032.605469 C 212.378906 1032.242188 212.636719 1031.878906 212.898438 1031.527344 L 216.027344 1027.234375 L 217.59375 1025.085938 C 218.117188 1024.378906 218.660156 1023.675781 219.191406 1022.96875 L 222.394531 1018.730469 L 223.195312 1017.671875 L 224.019531 1016.628906 L 225.65625 1014.539062 C 226.753906 1013.148438 227.835938 1011.742188 228.945312 1010.359375 C 233.402344 1004.851562 237.910156 999.375 242.589844 994.035156 L 246.097656 990.027344 L 249.667969 986.074219 L 251.449219 984.089844 C 251.746094 983.757812 252.050781 983.433594 252.355469 983.109375 L 253.265625 982.136719 L 256.902344 978.234375 L 257.8125 977.257812 C 258.117188 976.933594 258.429688 976.621094 258.746094 976.296875 L 260.597656 974.375 L 264.292969 970.535156 L 268.066406 966.753906 L 269.945312 964.859375 L 270.414062 964.382812 L 270.898438 963.917969 L 271.855469 962.988281 L 275.691406 959.253906 C 276.957031 957.996094 278.277344 956.796875 279.570312 955.5625 L 283.46875 951.878906 C 284.796875 950.683594 286.109375 949.472656 287.425781 948.257812 C 290.050781 945.816406 292.75 943.472656 295.425781 941.070312 C 296.75 939.855469 298.125 938.707031 299.476562 937.523438 C 300.824219 936.335938 302.183594 935.160156 303.53125 933.960938 C 301.992188 934.894531 300.460938 935.839844 298.933594 936.792969 C 297.40625 937.746094 295.871094 938.691406 294.378906 939.699219 C 291.390625 941.699219 288.359375 943.664062 285.441406 945.777344 C 283.96875 946.816406 282.492188 947.855469 281.027344 948.90625 L 276.691406 952.144531 C 273.777344 954.277344 270.96875 956.542969 268.128906 958.785156 C 266.707031 959.890625 265.324219 961.058594 263.933594 962.210938 L 259.769531 965.6875 C 258.398438 966.867188 257.046875 968.066406 255.683594 969.253906 C 254.324219 970.445312 252.949219 971.625 251.628906 972.863281 L 247.636719 976.539062 L 246.636719 977.464844 C 246.304688 977.769531 245.972656 978.078125 245.652344 978.394531 L 243.699219 980.285156 L 239.796875 984.066406 C 238.511719 985.34375 237.25 986.640625 235.976562 987.933594 C 230.878906 993.078125 225.996094 998.449219 221.183594 1003.882812 C 219.992188 1005.246094 218.828125 1006.636719 217.648438 1008.015625 L 215.882812 1010.089844 L 215.007812 1011.128906 L 214.148438 1012.183594 L 210.714844 1016.414062 C 210.144531 1017.121094 209.570312 1017.820312 209.007812 1018.535156 L 207.34375 1020.691406 L 204.019531 1025 C 203.738281 1025.359375 203.464844 1025.71875 203.199219 1026.089844 L 202.394531 1027.1875 L 200.78125 1029.378906 C 198.613281 1032.296875 196.503906 1035.257812 194.449219 1038.257812 L 192.90625 1040.511719 L 191.394531 1042.796875 C 190.375 1044.308594 189.398438 1045.847656 188.40625 1047.382812 C 188.164062 1047.765625 187.910156 1048.148438 187.671875 1048.535156 L 186.949219 1049.703125 L 185.507812 1052.035156 C 185.027344 1052.8125 184.570312 1053.605469 184.097656 1054.390625 C 183.628906 1055.175781 183.15625 1055.960938 182.699219 1056.757812 C 180.886719 1059.9375 179.09375 1063.144531 177.410156 1066.417969 L 176.15625 1068.875 L 174.949219 1071.359375 C 174.128906 1073.007812 173.363281 1074.691406 172.605469 1076.367188 C 172.417969 1076.789062 172.222656 1077.207031 172.039062 1077.625 L 171.496094 1078.902344 L 170.414062 1081.449219 C 170.054688 1082.300781 169.726562 1083.167969 169.382812 1084.027344 C 169.039062 1084.882812 168.699219 1085.742188 168.378906 1086.609375 C 167.105469 1090.085938 165.871094 1093.582031 164.835938 1097.148438 L 164.050781 1099.816406 L 163.328125 1102.515625 L 162.976562 1103.863281 L 162.660156 1105.214844 L 162.027344 1107.925781 L 161.472656 1110.652344 C 161.378906 1111.109375 161.277344 1111.5625 161.203125 1112.015625 L 160.964844 1113.386719 C 160.808594 1114.300781 160.636719 1115.210938 160.496094 1116.128906 L 160.089844 1118.878906 C 159.945312 1119.792969 159.84375 1120.714844 159.746094 1121.632812 L 159.582031 1123.011719 C 159.53125 1123.472656 159.472656 1123.933594 159.433594 1124.394531 C 159.265625 1126.234375 159.078125 1128.082031 158.984375 1129.925781 L 158.902344 1131.308594 L 158.859375 1132.003906 L 158.832031 1132.695312 L 158.730469 1135.464844 C 158.707031 1135.925781 158.703125 1136.386719 158.703125 1136.851562 L 158.6875 1138.234375 C 158.6875 1139.15625 158.664062 1140.078125 158.6875 1141.003906 L 158.738281 1143.769531 C 158.753906 1144.691406 158.808594 1145.613281 158.851562 1146.535156 C 158.917969 1148.375 159.078125 1150.210938 159.203125 1152.050781 C 159.277344 1152.96875 159.378906 1153.882812 159.46875 1154.796875 L 159.605469 1156.171875 C 159.652344 1156.628906 159.714844 1157.082031 159.773438 1157.542969 L 160.121094 1160.277344 L 160.535156 1163 L 160.746094 1164.359375 L 160.984375 1165.710938 L 161.480469 1168.417969 L 162.042969 1171.109375 C 162.140625 1171.558594 162.226562 1172.007812 162.332031 1172.457031 L 162.648438 1173.792969 C 163.464844 1177.363281 164.472656 1180.886719 165.542969 1184.378906 C 166.117188 1186.136719 166.660156 1187.878906 167.289062 1189.59375 Z M 167.289062 1189.59375 " fill-opacity="1" fill-rule="nonzero"/></g></g></g><g clip-path="url(#b69e6c4f28)"><g clip-path="url(#57f9c53596)"><g clip-path="url(#6d795d57be)"><path fill="#1d4ed8" d="M 343.417969 1261.289062 C 331.707031 1258.484375 320.425781 1254.464844 309.582031 1249.222656 C 298.839844 1244.035156 288.785156 1237.738281 279.429688 1230.335938 C 274.785156 1226.679688 270.378906 1222.757812 266.207031 1218.570312 C 262.035156 1214.382812 258.132812 1209.960938 254.492188 1205.304688 C 250.855469 1200.644531 247.511719 1195.785156 244.457031 1190.726562 C 241.40625 1185.664062 238.667969 1180.4375 236.242188 1175.046875 C 231.328125 1164.175781 227.652344 1152.898438 225.226562 1141.214844 C 221.511719 1123.378906 220.734375 1105.414062 222.894531 1087.320312 C 223.636719 1081.234375 224.683594 1075.199219 226.03125 1069.214844 C 223.480469 1074.878906 221.390625 1080.710938 219.769531 1086.710938 C 218.125 1092.746094 216.90625 1098.867188 216.121094 1105.074219 C 214.542969 1117.636719 214.617188 1130.195312 216.351562 1142.738281 C 218.078125 1155.378906 221.382812 1167.589844 226.273438 1179.375 C 228.703125 1185.285156 231.523438 1191 234.734375 1196.523438 C 237.949219 1202.050781 241.519531 1207.332031 245.449219 1212.367188 C 249.382812 1217.40625 253.640625 1222.152344 258.21875 1226.609375 C 262.796875 1231.0625 267.660156 1235.1875 272.800781 1238.980469 C 283.050781 1246.582031 294.097656 1252.75 305.941406 1257.492188 C 317.695312 1262.214844 329.859375 1265.335938 342.433594 1266.851562 C 348.644531 1267.59375 354.878906 1267.894531 361.132812 1267.757812 C 367.34375 1267.640625 373.507812 1267.023438 379.621094 1265.914062 C 373.488281 1265.773438 367.382812 1265.320312 361.292969 1264.5625 C 355.277344 1263.796875 349.316406 1262.703125 343.417969 1261.289062 Z M 343.417969 1261.289062 " fill-opacity="1" fill-rule="nonzero"/></g></g></g></svg>