<svg xmlns="http://www.w3.org/2000/svg" xmlns:xlink="http://www.w3.org/1999/xlink" width="2000" zoomAndPan="magnify" viewBox="0 0 1500 1499.999933" height="2000" preserveAspectRatio="xMidYMid meet" version="1.0"><defs><g/><clipPath id="4796931d9e"><rect x="0" width="1174" y="0" height="790"/></clipPath><clipPath id="5508ad2f1d"><path d="M 989.097656 760.347656 L 1303.347656 760.347656 L 1303.347656 1038.597656 L 989.097656 1038.597656 Z M 989.097656 760.347656 " clip-rule="nonzero"/></clipPath></defs><g transform="matrix(1, 0, 0, 1, 182, 365)"><g clip-path="url(#4796931d9e)"><g fill="#1d4ed8" fill-opacity="1"><g transform="translate(0.432523, 302.0826)"><g><path d="M 122.359375 -282.375 C 137.378906 -282.375 152.054688 -280.1875 166.390625 -275.8125 C 180.734375 -271.445312 191.378906 -267.132812 198.328125 -262.875 L 208.421875 -256.15625 L 182.875 -205.734375 C 180.851562 -207.078125 178.050781 -208.8125 174.46875 -210.9375 C 170.882812 -213.0625 164.160156 -215.914062 154.296875 -219.5 C 144.429688 -223.09375 135.242188 -224.890625 126.734375 -224.890625 C 116.203125 -224.890625 108.078125 -222.644531 102.359375 -218.15625 C 96.640625 -213.675781 93.78125 -207.628906 93.78125 -200.015625 C 93.78125 -196.203125 95.125 -192.671875 97.8125 -189.421875 C 100.507812 -186.171875 105.109375 -182.695312 111.609375 -179 C 118.109375 -175.300781 123.820312 -172.332031 128.75 -170.09375 C 133.675781 -167.851562 141.296875 -164.492188 151.609375 -160.015625 C 169.535156 -152.390625 184.828125 -142.019531 197.484375 -128.90625 C 210.148438 -115.800781 216.484375 -100.957031 216.484375 -84.375 C 216.484375 -68.46875 213.625 -54.570312 207.90625 -42.6875 C 202.195312 -30.8125 194.351562 -21.507812 184.375 -14.78125 C 174.40625 -8.0625 163.367188 -3.078125 151.265625 0.171875 C 139.171875 3.421875 126.0625 5.046875 111.9375 5.046875 C 99.832031 5.046875 87.953125 3.8125 76.296875 1.34375 C 64.648438 -1.125 54.90625 -4.207031 47.0625 -7.90625 C 39.21875 -11.601562 32.15625 -15.242188 25.875 -18.828125 C 19.601562 -22.410156 15.015625 -25.4375 12.109375 -27.90625 L 7.734375 -31.59375 L 39.328125 -84.71875 C 42.015625 -82.46875 45.710938 -79.601562 50.421875 -76.125 C 55.128906 -72.65625 63.476562 -68.007812 75.46875 -62.1875 C 87.457031 -56.363281 98.046875 -53.453125 107.234375 -53.453125 C 133.898438 -53.453125 147.234375 -62.523438 147.234375 -80.671875 C 147.234375 -84.484375 146.28125 -88.015625 144.375 -91.265625 C 142.46875 -94.515625 139.101562 -97.765625 134.28125 -101.015625 C 129.46875 -104.265625 125.210938 -106.84375 121.515625 -108.75 C 117.816406 -110.65625 111.765625 -113.566406 103.359375 -117.484375 C 94.960938 -121.410156 88.75 -124.378906 84.71875 -126.390625 C 67.90625 -134.679688 54.90625 -145.046875 45.71875 -157.484375 C 36.53125 -169.921875 31.9375 -183.3125 31.9375 -197.65625 C 31.9375 -222.53125 41.125 -242.867188 59.5 -258.671875 C 77.875 -274.472656 98.828125 -282.375 122.359375 -282.375 Z M 122.359375 -282.375 "/></g></g></g><g fill="#1d4ed8" fill-opacity="1"><g transform="translate(263.300668, 302.0826)"><g><path d="M 7.734375 -138.828125 C 7.734375 -178.941406 21.398438 -212.894531 48.734375 -240.6875 C 76.078125 -268.476562 109.023438 -282.375 147.578125 -282.375 C 186.347656 -282.375 219.289062 -268.535156 246.40625 -240.859375 C 273.519531 -213.179688 287.078125 -179.171875 287.078125 -138.828125 C 287.078125 -98.265625 273.742188 -64.144531 247.078125 -36.46875 C 220.410156 -8.789062 187.242188 5.046875 147.578125 5.046875 C 107.015625 5.046875 73.566406 -8.675781 47.234375 -36.125 C 20.898438 -63.582031 7.734375 -97.816406 7.734375 -138.828125 Z M 75.96875 -138.828125 C 75.96875 -124.265625 78.207031 -110.988281 82.6875 -99 C 87.175781 -87.007812 95.019531 -76.867188 106.21875 -68.578125 C 117.425781 -60.285156 131.210938 -56.140625 147.578125 -56.140625 C 171.109375 -56.140625 188.867188 -64.207031 200.859375 -80.34375 C 212.847656 -96.476562 218.84375 -115.972656 218.84375 -138.828125 C 218.84375 -161.460938 212.734375 -180.90625 200.515625 -197.15625 C 188.304688 -213.40625 170.660156 -221.53125 147.578125 -221.53125 C 124.710938 -221.53125 107.0625 -213.40625 94.625 -197.15625 C 82.1875 -180.90625 75.96875 -161.460938 75.96875 -138.828125 Z M 75.96875 -138.828125 "/></g></g></g><g fill="#1d4ed8" fill-opacity="1"><g transform="translate(595.079131, 302.0826)"><g><path d="M 161.015625 -277.328125 L 272.953125 0 L 205.0625 0 L 184.546875 -55.46875 L 79 -55.46875 L 58.484375 0 L -9.40625 0 L 102.53125 -277.328125 Z M 163.03125 -110.9375 L 132.109375 -191.609375 L 131.4375 -191.609375 L 100.515625 -110.9375 Z M 163.03125 -110.9375 "/></g></g></g><g fill="#1d4ed8" fill-opacity="1"><g transform="translate(895.595864, 302.0826)"><g><path d="M 20.171875 -277.328125 L 119.328125 -277.328125 C 146.003906 -277.328125 167.742188 -270.210938 184.546875 -255.984375 C 201.359375 -241.753906 209.765625 -221.414062 209.765625 -194.96875 C 209.765625 -174.570312 204.664062 -157.484375 194.46875 -143.703125 C 184.269531 -129.921875 170.429688 -120.226562 152.953125 -114.625 L 248.421875 0 L 168.078125 0 L 83.359375 -109.59375 L 83.359375 0 L 20.171875 0 Z M 83.359375 -154.296875 L 90.765625 -154.296875 C 96.585938 -154.296875 101.515625 -154.40625 105.546875 -154.625 C 109.585938 -154.851562 114.179688 -155.640625 119.328125 -156.984375 C 124.484375 -158.328125 128.628906 -160.226562 131.765625 -162.6875 C 134.910156 -165.15625 137.601562 -168.742188 139.84375 -173.453125 C 142.082031 -178.160156 143.203125 -183.875 143.203125 -190.59375 C 143.203125 -197.320312 142.082031 -203.035156 139.84375 -207.734375 C 137.601562 -212.441406 134.910156 -216.03125 131.765625 -218.5 C 128.628906 -220.96875 124.484375 -222.875 119.328125 -224.21875 C 114.179688 -225.5625 109.585938 -226.34375 105.546875 -226.5625 C 101.515625 -226.789062 96.585938 -226.90625 90.765625 -226.90625 L 83.359375 -226.90625 Z M 83.359375 -154.296875 "/></g></g></g><g fill="#1d4ed8" fill-opacity="1"><g transform="translate(0.432523, 671.405195)"><g><path d="M 122.359375 -282.375 C 137.378906 -282.375 152.054688 -280.1875 166.390625 -275.8125 C 180.734375 -271.445312 191.378906 -267.132812 198.328125 -262.875 L 208.421875 -256.15625 L 182.875 -205.734375 C 180.851562 -207.078125 178.050781 -208.8125 174.46875 -210.9375 C 170.882812 -213.0625 164.160156 -215.914062 154.296875 -219.5 C 144.429688 -223.09375 135.242188 -224.890625 126.734375 -224.890625 C 116.203125 -224.890625 108.078125 -222.644531 102.359375 -218.15625 C 96.640625 -213.675781 93.78125 -207.628906 93.78125 -200.015625 C 93.78125 -196.203125 95.125 -192.671875 97.8125 -189.421875 C 100.507812 -186.171875 105.109375 -182.695312 111.609375 -179 C 118.109375 -175.300781 123.820312 -172.332031 128.75 -170.09375 C 133.675781 -167.851562 141.296875 -164.492188 151.609375 -160.015625 C 169.535156 -152.390625 184.828125 -142.019531 197.484375 -128.90625 C 210.148438 -115.800781 216.484375 -100.957031 216.484375 -84.375 C 216.484375 -68.46875 213.625 -54.570312 207.90625 -42.6875 C 202.195312 -30.8125 194.351562 -21.507812 184.375 -14.78125 C 174.40625 -8.0625 163.367188 -3.078125 151.265625 0.171875 C 139.171875 3.421875 126.0625 5.046875 111.9375 5.046875 C 99.832031 5.046875 87.953125 3.8125 76.296875 1.34375 C 64.648438 -1.125 54.90625 -4.207031 47.0625 -7.90625 C 39.21875 -11.601562 32.15625 -15.242188 25.875 -18.828125 C 19.601562 -22.410156 15.015625 -25.4375 12.109375 -27.90625 L 7.734375 -31.59375 L 39.328125 -84.71875 C 42.015625 -82.46875 45.710938 -79.601562 50.421875 -76.125 C 55.128906 -72.65625 63.476562 -68.007812 75.46875 -62.1875 C 87.457031 -56.363281 98.046875 -53.453125 107.234375 -53.453125 C 133.898438 -53.453125 147.234375 -62.523438 147.234375 -80.671875 C 147.234375 -84.484375 146.28125 -88.015625 144.375 -91.265625 C 142.46875 -94.515625 139.101562 -97.765625 134.28125 -101.015625 C 129.46875 -104.265625 125.210938 -106.84375 121.515625 -108.75 C 117.816406 -110.65625 111.765625 -113.566406 103.359375 -117.484375 C 94.960938 -121.410156 88.75 -124.378906 84.71875 -126.390625 C 67.90625 -134.679688 54.90625 -145.046875 45.71875 -157.484375 C 36.53125 -169.921875 31.9375 -183.3125 31.9375 -197.65625 C 31.9375 -222.53125 41.125 -242.867188 59.5 -258.671875 C 77.875 -274.472656 98.828125 -282.375 122.359375 -282.375 Z M 122.359375 -282.375 "/></g></g></g><g fill="#1d4ed8" fill-opacity="1"><g transform="translate(263.300668, 671.405195)"><g><path d="M 161.015625 -277.328125 L 272.953125 0 L 205.0625 0 L 184.546875 -55.46875 L 79 -55.46875 L 58.484375 0 L -9.40625 0 L 102.53125 -277.328125 Z M 163.03125 -110.9375 L 132.109375 -191.609375 L 131.4375 -191.609375 L 100.515625 -110.9375 Z M 163.03125 -110.9375 "/></g></g></g><g fill="#1d4ed8" fill-opacity="1"><g transform="translate(547.682265, 671.405195)"><g><path d="M 2.6875 -221.859375 L 2.6875 -277.328125 L 197.65625 -277.328125 L 197.65625 -221.859375 L 131.765625 -221.859375 L 131.765625 0 L 68.578125 0 L 68.578125 -221.859375 Z M 2.6875 -221.859375 "/></g></g></g></g></g><g clip-path="url(#5508ad2f1d)"><path fill="#1d4ed8" d="M 1303.320312 760.351562 L 1247.953125 1038.90625 L 1145.890625 960.609375 C 1145.890625 960.605469 1145.890625 960.605469 1145.890625 960.605469 L 1122.488281 942.65625 L 1254.3125 810.691406 C 1255.976562 809.027344 1256.125 806.382812 1254.664062 804.542969 C 1253.203125 802.703125 1250.59375 802.253906 1248.597656 803.492188 L 1066.828125 916.402344 L 989.195312 886 L 1303.320312 760.351562 " fill-opacity="1" fill-rule="nonzero"/></g><path fill="#1d4ed8" d="M 1136.515625 965.078125 L 1104.886719 1004.769531 L 1118.273438 951.082031 Z M 1136.515625 965.078125 " fill-opacity="1" fill-rule="nonzero"/><path fill="#1d4ed8" d="M 1219.472656 832.472656 L 1112.214844 939.847656 C 1112.195312 939.867188 1112.175781 939.894531 1112.152344 939.914062 C 1112.113281 939.953125 1112.074219 939.996094 1112.035156 940.039062 C 1112.007812 940.070312 1111.976562 940.105469 1111.949219 940.140625 C 1111.914062 940.179688 1111.878906 940.226562 1111.84375 940.269531 C 1111.820312 940.304688 1111.792969 940.339844 1111.765625 940.375 C 1111.730469 940.417969 1111.699219 940.464844 1111.667969 940.511719 C 1111.644531 940.546875 1111.617188 940.585938 1111.59375 940.621094 C 1111.5625 940.667969 1111.535156 940.71875 1111.503906 940.765625 C 1111.484375 940.800781 1111.460938 940.839844 1111.441406 940.878906 C 1111.414062 940.929688 1111.386719 940.980469 1111.363281 941.03125 C 1111.34375 941.070312 1111.324219 941.105469 1111.304688 941.144531 C 1111.28125 941.199219 1111.257812 941.253906 1111.230469 941.308594 C 1111.21875 941.347656 1111.199219 941.382812 1111.183594 941.421875 C 1111.164062 941.480469 1111.140625 941.542969 1111.117188 941.605469 C 1111.109375 941.636719 1111.09375 941.671875 1111.082031 941.703125 C 1111.058594 941.789062 1111.035156 941.867188 1111.011719 941.949219 C 1111.007812 941.96875 1111.003906 941.980469 1111 941.996094 L 1095.0625 1005.941406 L 1088.652344 982.390625 L 1072.664062 923.667969 L 1219.472656 832.472656 " fill-opacity="1" fill-rule="nonzero"/></svg>