<svg xmlns="http://www.w3.org/2000/svg" xmlns:xlink="http://www.w3.org/1999/xlink" width="2000" zoomAndPan="magnify" viewBox="0 0 1500 1499.999933" height="2000" preserveAspectRatio="xMidYMid meet" version="1.0"><defs><g/><clipPath id="54d7fded3a"><rect x="0" width="1472" y="0" height="1002"/></clipPath><clipPath id="b9e0213811"><path d="M 1052.355469 750 L 1451.355469 750 L 1451.355469 1103.25 L 1052.355469 1103.25 Z M 1052.355469 750 " clip-rule="nonzero"/></clipPath></defs><g transform="matrix(1, 0, 0, 1, 28, 249)"><g clip-path="url(#54d7fded3a)"><g fill="#1d4ed8" fill-opacity="1"><g transform="translate(0.384312, 382.612574)"><g><path d="M 155.3125 -358.4375 C 174.375 -358.4375 193.007812 -355.660156 211.21875 -350.109375 C 229.425781 -344.566406 242.9375 -339.09375 251.75 -333.6875 L 264.5625 -325.140625 L 232.125 -261.140625 C 229.5625 -262.847656 226.003906 -265.050781 221.453125 -267.75 C 216.898438 -270.457031 208.363281 -274.085938 195.84375 -278.640625 C 183.332031 -283.191406 171.671875 -285.46875 160.859375 -285.46875 C 147.492188 -285.46875 137.179688 -282.617188 129.921875 -276.921875 C 122.671875 -271.234375 119.046875 -263.554688 119.046875 -253.890625 C 119.046875 -249.054688 120.753906 -244.578125 124.171875 -240.453125 C 127.585938 -236.328125 133.421875 -231.914062 141.671875 -227.21875 C 149.921875 -222.519531 157.171875 -218.75 163.421875 -215.90625 C 169.679688 -213.0625 179.351562 -208.796875 192.4375 -203.109375 C 215.195312 -193.441406 234.613281 -180.285156 250.6875 -163.640625 C 266.757812 -146.992188 274.796875 -128.148438 274.796875 -107.109375 C 274.796875 -86.910156 271.164062 -69.269531 263.90625 -54.1875 C 256.65625 -39.113281 246.703125 -27.304688 234.046875 -18.765625 C 221.390625 -10.234375 207.378906 -3.90625 192.015625 0.21875 C 176.648438 4.34375 160.007812 6.40625 142.09375 6.40625 C 126.726562 6.40625 111.648438 4.835938 96.859375 1.703125 C 82.066406 -1.421875 69.691406 -5.328125 59.734375 -10.015625 C 49.773438 -14.710938 40.8125 -19.335938 32.84375 -23.890625 C 24.882812 -28.441406 19.054688 -32.285156 15.359375 -35.421875 L 9.8125 -40.109375 L 49.921875 -107.53125 C 53.335938 -104.6875 58.03125 -101.054688 64 -96.640625 C 69.976562 -92.234375 80.578125 -86.332031 95.796875 -78.9375 C 111.015625 -71.539062 124.457031 -67.84375 136.125 -67.84375 C 169.96875 -67.84375 186.890625 -79.363281 186.890625 -102.40625 C 186.890625 -107.238281 185.679688 -111.71875 183.265625 -115.84375 C 180.847656 -119.96875 176.582031 -124.09375 170.46875 -128.21875 C 164.351562 -132.34375 158.945312 -135.613281 154.25 -138.03125 C 149.5625 -140.457031 141.878906 -144.15625 131.203125 -149.125 C 120.535156 -154.101562 112.644531 -157.875 107.53125 -160.4375 C 86.195312 -170.96875 69.695312 -184.125 58.03125 -199.90625 C 46.363281 -215.695312 40.53125 -232.695312 40.53125 -250.90625 C 40.53125 -282.476562 52.191406 -308.289062 75.515625 -328.34375 C 98.847656 -348.40625 125.445312 -358.4375 155.3125 -358.4375 Z M 155.3125 -358.4375 "/></g></g></g><g fill="#1d4ed8" fill-opacity="1"><g transform="translate(334.066137, 382.612574)"><g><path d="M 9.8125 -176.234375 C 9.8125 -227.148438 27.164062 -270.242188 61.875 -305.515625 C 96.582031 -340.796875 138.398438 -358.4375 187.328125 -358.4375 C 236.535156 -358.4375 278.347656 -340.867188 312.765625 -305.734375 C 347.191406 -270.597656 364.40625 -227.429688 364.40625 -176.234375 C 364.40625 -124.742188 347.476562 -81.429688 313.625 -46.296875 C 279.769531 -11.160156 237.671875 6.40625 187.328125 6.40625 C 135.835938 6.40625 93.378906 -11.015625 59.953125 -45.859375 C 26.523438 -80.710938 9.8125 -124.171875 9.8125 -176.234375 Z M 96.4375 -176.234375 C 96.4375 -157.742188 99.28125 -140.882812 104.96875 -125.65625 C 110.65625 -110.4375 120.609375 -97.566406 134.828125 -87.046875 C 149.054688 -76.523438 166.554688 -71.265625 187.328125 -71.265625 C 217.191406 -71.265625 239.734375 -81.503906 254.953125 -101.984375 C 270.171875 -122.460938 277.78125 -147.210938 277.78125 -176.234375 C 277.78125 -204.960938 270.023438 -229.640625 254.515625 -250.265625 C 239.015625 -270.890625 216.617188 -281.203125 187.328125 -281.203125 C 158.304688 -281.203125 135.898438 -270.890625 120.109375 -250.265625 C 104.328125 -229.640625 96.4375 -204.960938 96.4375 -176.234375 Z M 96.4375 -176.234375 "/></g></g></g><g fill="#1d4ed8" fill-opacity="1"><g transform="translate(755.221934, 382.612574)"><g><path d="M 204.390625 -352.03125 L 346.484375 0 L 260.28125 0 L 234.265625 -70.40625 L 100.28125 -70.40625 L 74.25 0 L -11.953125 0 L 130.140625 -352.03125 Z M 206.953125 -140.8125 L 167.6875 -243.21875 L 166.84375 -243.21875 L 127.578125 -140.8125 Z M 206.953125 -140.8125 "/></g></g></g><g fill="#1d4ed8" fill-opacity="1"><g transform="translate(1136.694446, 382.612574)"><g><path d="M 25.609375 -352.03125 L 151.484375 -352.03125 C 185.328125 -352.03125 212.914062 -343 234.25 -324.9375 C 255.59375 -306.875 266.265625 -281.054688 266.265625 -247.484375 C 266.265625 -221.597656 259.789062 -199.90625 246.84375 -182.40625 C 233.90625 -164.914062 216.34375 -152.613281 194.15625 -145.5 L 315.328125 0 L 213.359375 0 L 105.828125 -139.109375 L 105.828125 0 L 25.609375 0 Z M 105.828125 -195.859375 L 115.203125 -195.859375 C 122.597656 -195.859375 128.859375 -196 133.984375 -196.28125 C 139.109375 -196.5625 144.941406 -197.554688 151.484375 -199.265625 C 158.023438 -200.972656 163.285156 -203.390625 167.265625 -206.515625 C 171.242188 -209.648438 174.65625 -214.203125 177.5 -220.171875 C 180.351562 -226.148438 181.78125 -233.40625 181.78125 -241.9375 C 181.78125 -250.46875 180.351562 -257.71875 177.5 -263.6875 C 174.65625 -269.664062 171.242188 -274.21875 167.265625 -277.34375 C 163.285156 -280.476562 158.023438 -282.898438 151.484375 -284.609375 C 144.941406 -286.316406 139.109375 -287.3125 133.984375 -287.59375 C 128.859375 -287.882812 122.597656 -288.03125 115.203125 -288.03125 L 105.828125 -288.03125 Z M 105.828125 -195.859375 "/></g></g></g><g fill="#1d4ed8" fill-opacity="1"><g transform="translate(0.384312, 851.426463)"><g><path d="M 155.3125 -358.4375 C 174.375 -358.4375 193.007812 -355.660156 211.21875 -350.109375 C 229.425781 -344.566406 242.9375 -339.09375 251.75 -333.6875 L 264.5625 -325.140625 L 232.125 -261.140625 C 229.5625 -262.847656 226.003906 -265.050781 221.453125 -267.75 C 216.898438 -270.457031 208.363281 -274.085938 195.84375 -278.640625 C 183.332031 -283.191406 171.671875 -285.46875 160.859375 -285.46875 C 147.492188 -285.46875 137.179688 -282.617188 129.921875 -276.921875 C 122.671875 -271.234375 119.046875 -263.554688 119.046875 -253.890625 C 119.046875 -249.054688 120.753906 -244.578125 124.171875 -240.453125 C 127.585938 -236.328125 133.421875 -231.914062 141.671875 -227.21875 C 149.921875 -222.519531 157.171875 -218.75 163.421875 -215.90625 C 169.679688 -213.0625 179.351562 -208.796875 192.4375 -203.109375 C 215.195312 -193.441406 234.613281 -180.285156 250.6875 -163.640625 C 266.757812 -146.992188 274.796875 -128.148438 274.796875 -107.109375 C 274.796875 -86.910156 271.164062 -69.269531 263.90625 -54.1875 C 256.65625 -39.113281 246.703125 -27.304688 234.046875 -18.765625 C 221.390625 -10.234375 207.378906 -3.90625 192.015625 0.21875 C 176.648438 4.34375 160.007812 6.40625 142.09375 6.40625 C 126.726562 6.40625 111.648438 4.835938 96.859375 1.703125 C 82.066406 -1.421875 69.691406 -5.328125 59.734375 -10.015625 C 49.773438 -14.710938 40.8125 -19.335938 32.84375 -23.890625 C 24.882812 -28.441406 19.054688 -32.285156 15.359375 -35.421875 L 9.8125 -40.109375 L 49.921875 -107.53125 C 53.335938 -104.6875 58.03125 -101.054688 64 -96.640625 C 69.976562 -92.234375 80.578125 -86.332031 95.796875 -78.9375 C 111.015625 -71.539062 124.457031 -67.84375 136.125 -67.84375 C 169.96875 -67.84375 186.890625 -79.363281 186.890625 -102.40625 C 186.890625 -107.238281 185.679688 -111.71875 183.265625 -115.84375 C 180.847656 -119.96875 176.582031 -124.09375 170.46875 -128.21875 C 164.351562 -132.34375 158.945312 -135.613281 154.25 -138.03125 C 149.5625 -140.457031 141.878906 -144.15625 131.203125 -149.125 C 120.535156 -154.101562 112.644531 -157.875 107.53125 -160.4375 C 86.195312 -170.96875 69.695312 -184.125 58.03125 -199.90625 C 46.363281 -215.695312 40.53125 -232.695312 40.53125 -250.90625 C 40.53125 -282.476562 52.191406 -308.289062 75.515625 -328.34375 C 98.847656 -348.40625 125.445312 -358.4375 155.3125 -358.4375 Z M 155.3125 -358.4375 "/></g></g></g><g fill="#1d4ed8" fill-opacity="1"><g transform="translate(334.066137, 851.426463)"><g><path d="M 204.390625 -352.03125 L 346.484375 0 L 260.28125 0 L 234.265625 -70.40625 L 100.28125 -70.40625 L 74.25 0 L -11.953125 0 L 130.140625 -352.03125 Z M 206.953125 -140.8125 L 167.6875 -243.21875 L 166.84375 -243.21875 L 127.578125 -140.8125 Z M 206.953125 -140.8125 "/></g></g></g><g fill="#1d4ed8" fill-opacity="1"><g transform="translate(695.056893, 851.426463)"><g><path d="M 3.40625 -281.625 L 3.40625 -352.03125 L 250.90625 -352.03125 L 250.90625 -281.625 L 167.265625 -281.625 L 167.265625 0 L 87.046875 0 L 87.046875 -281.625 Z M 3.40625 -281.625 "/></g></g></g></g></g><g clip-path="url(#b9e0213811)"><path fill="#1d4ed8" d="M 1451.230469 750.007812 L 1380.949219 1103.605469 L 1251.390625 1004.214844 C 1251.386719 1004.210938 1251.386719 1004.210938 1251.386719 1004.210938 L 1221.683594 981.421875 L 1389.023438 813.910156 C 1391.132812 811.796875 1391.320312 808.441406 1389.46875 806.105469 C 1387.613281 803.769531 1384.300781 803.195312 1381.765625 804.769531 L 1151.027344 948.097656 L 1052.480469 909.507812 L 1451.230469 750.007812 " fill-opacity="1" fill-rule="nonzero"/></g><path fill="#1d4ed8" d="M 1239.488281 1009.890625 L 1199.339844 1060.273438 L 1216.332031 992.121094 Z M 1239.488281 1009.890625 " fill-opacity="1" fill-rule="nonzero"/><path fill="#1d4ed8" d="M 1344.796875 841.558594 L 1208.644531 977.859375 C 1208.617188 977.882812 1208.59375 977.917969 1208.5625 977.945312 C 1208.511719 977.992188 1208.464844 978.050781 1208.414062 978.101562 C 1208.378906 978.144531 1208.339844 978.1875 1208.304688 978.230469 C 1208.257812 978.28125 1208.214844 978.339844 1208.171875 978.394531 C 1208.136719 978.4375 1208.105469 978.484375 1208.070312 978.527344 C 1208.027344 978.585938 1207.984375 978.644531 1207.949219 978.703125 C 1207.917969 978.75 1207.882812 978.796875 1207.855469 978.839844 C 1207.8125 978.902344 1207.78125 978.964844 1207.738281 979.027344 C 1207.714844 979.070312 1207.6875 979.121094 1207.660156 979.171875 C 1207.625 979.234375 1207.589844 979.296875 1207.558594 979.363281 C 1207.535156 979.414062 1207.507812 979.457031 1207.488281 979.507812 C 1207.457031 979.574219 1207.425781 979.648438 1207.394531 979.714844 C 1207.375 979.761719 1207.351562 979.808594 1207.335938 979.859375 C 1207.304688 979.933594 1207.277344 980.011719 1207.25 980.089844 C 1207.238281 980.128906 1207.21875 980.175781 1207.203125 980.21875 C 1207.171875 980.324219 1207.144531 980.421875 1207.117188 980.527344 C 1207.109375 980.550781 1207.105469 980.570312 1207.101562 980.589844 L 1186.867188 1061.757812 L 1178.730469 1031.863281 L 1158.4375 957.320312 L 1344.796875 841.558594 " fill-opacity="1" fill-rule="nonzero"/></svg>